<?xml version="1.0" encoding="UTF-8" standalone="no"?>
<!-- Created with Inkscape (http://www.inkscape.org/) -->

<svg
   xmlns:dc="http://purl.org/dc/elements/1.1/"
   xmlns:cc="http://creativecommons.org/ns#"
   xmlns:rdf="http://www.w3.org/1999/02/22-rdf-syntax-ns#"
   xmlns:svg="http://www.w3.org/2000/svg"
   xmlns="http://www.w3.org/2000/svg"
   xmlns:sodipodi="http://sodipodi.sourceforge.net/DTD/sodipodi-0.dtd"
   xmlns:inkscape="http://www.inkscape.org/namespaces/inkscape"
   width="300"
   height="300"
   id="svg2"
   version="1.1"
   inkscape:version="0.48.5 r10040"
   sodipodi:docname="correctLateralWeir.svg">
  <defs
     id="defs4" />
  <sodipodi:namedview
     id="base"
     pagecolor="#ffffff"
     bordercolor="#666666"
     borderopacity="1.0"
     inkscape:pageopacity="0.0"
     inkscape:pageshadow="2"
     inkscape:zoom="2"
     inkscape:cx="98.22841"
     inkscape:cy="170.99858"
     inkscape:document-units="px"
     inkscape:current-layer="layer2"
     showgrid="false"
     inkscape:window-width="1842"
     inkscape:window-height="1061"
     inkscape:window-x="74"
     inkscape:window-y="-4"
     inkscape:window-maximized="1" />
  <metadata
     id="metadata7">
    <rdf:RDF>
      <cc:Work
         rdf:about="">
        <dc:format>image/svg+xml</dc:format>
        <dc:type
           rdf:resource="http://purl.org/dc/dcmitype/StillImage" />
        <dc:title></dc:title>
      </cc:Work>
    </rdf:RDF>
  </metadata>
  <g
     inkscape:label="Layer 1"
     inkscape:groupmode="layer"
     id="layer1"
     transform="translate(0,-752.36218)">
    <path
       style="fill:#b3b3b3;stroke:#000000;stroke-width:1;stroke-linecap:butt;stroke-linejoin:miter;stroke-miterlimit:4;stroke-opacity:1;stroke-dasharray:none"
       d="m 13.5,859.36218 c 0.322879,28.84579 -0.164651,172.73532 -0.164651,172.73532 106.694491,0.5579 188.366941,-0.3721 271.977411,-0.3203 l 2.35055,-190.62814 c -7.22574,-6.6207 -4.09867,12.03732 -17.18588,13.32645 -59.31839,5.84305 -75.05813,17.38595 -88.47755,13.88714 -20.92291,-5.45519 -15.51079,-15.22425 -33.48203,-15.68973 -22.22538,-0.57566 -21.75145,19.50846 -39.00883,19.19414 -44.181584,-0.8047 -50.075172,-6.04997 -53.593052,-16.49488 -4.3836,-13.01532 -27.823521,2.51738 -42.415968,3.99 z"
       id="path3803"
       inkscape:connector-curvature="0"
       sodipodi:nodetypes="ccccsssssc" />
  </g>
  <g
     inkscape:groupmode="layer"
     id="layer2"
     inkscape:label="profile">
    <path
       style="fill:none;stroke:#000000;stroke-width:9;stroke-linecap:butt;stroke-linejoin:miter;stroke-miterlimit:4;stroke-opacity:1;stroke-dasharray:none"
       d="m 13,109 29.5,-10 5,0.5 4.5,1.5 7.5,10.5 10.5,5.5 11,2.5 23.5,1.5 11.5,-2.5 9.5,-5.5 5.5,-6 8.5,-3 5,-2 9,0 7,4.5 8.5,5.5 7.5,3.5 10,3 13.5,-1.5 23,-4 31,-6.5 19.5,-3.5 5,-5.5 4,-7.5 4.5,-2"
       id="path3772"
       inkscape:connector-curvature="0" />
    <path
       style="fill:none;stroke:#000000;stroke-width:9;stroke-linecap:butt;stroke-linejoin:miter;stroke-opacity:1;stroke-miterlimit:4;stroke-dasharray:none"
       d="M 13.5,279.5 285,279"
       id="path3774"
       inkscape:connector-curvature="0" />
    <path
       style="fill:none;stroke:#ff0000;stroke-width:9;stroke-linecap:butt;stroke-linejoin:miter;stroke-miterlimit:4;stroke-opacity:1;stroke-dasharray:none"
       d="m 12,113.5 60,13.5 57.5,5 71,-2 72,-25 15.5,-9"
       id="path3778"
       inkscape:connector-curvature="0"
       sodipodi:nodetypes="cccccc" />
  </g>
</svg>
