<?xml version="1.0" encoding="UTF-8" standalone="no"?>
<!-- Created with Inkscape (http://www.inkscape.org/) -->

<svg
   xmlns:dc="http://purl.org/dc/elements/1.1/"
   xmlns:cc="http://creativecommons.org/ns#"
   xmlns:rdf="http://www.w3.org/1999/02/22-rdf-syntax-ns#"
   xmlns:svg="http://www.w3.org/2000/svg"
   xmlns="http://www.w3.org/2000/svg"
   xmlns:sodipodi="http://sodipodi.sourceforge.net/DTD/sodipodi-0.dtd"
   xmlns:inkscape="http://www.inkscape.org/namespaces/inkscape"
   width="300"
   height="300"
   id="svg2"
   version="1.1"
   inkscape:version="0.91 r13725"
   sodipodi:docname="importFromIsok.svg">
  <defs
     id="defs4" />
  <sodipodi:namedview
     id="base"
     pagecolor="#ffffff"
     bordercolor="#666666"
     borderopacity="1.0"
     inkscape:pageopacity="0.0"
     inkscape:pageshadow="2"
     inkscape:zoom="2"
     inkscape:cx="185.67617"
     inkscape:cy="160.1349"
     inkscape:document-units="px"
     inkscape:current-layer="layer2"
     showgrid="false"
     inkscape:window-width="1842"
     inkscape:window-height="1181"
     inkscape:window-x="74"
     inkscape:window-y="-4"
     inkscape:window-maximized="1" />
  <metadata
     id="metadata7">
    <rdf:RDF>
      <cc:Work
         rdf:about="">
        <dc:format>image/svg+xml</dc:format>
        <dc:type
           rdf:resource="http://purl.org/dc/dcmitype/StillImage" />
        <dc:title></dc:title>
      </cc:Work>
    </rdf:RDF>
  </metadata>
  <g
     inkscape:label="Layer 1"
     inkscape:groupmode="layer"
     id="layer1"
     transform="translate(0,-752.36218)" />
  <g
     inkscape:groupmode="layer"
     id="layer2"
     inkscape:label="profile">
    <g
       id="g4171">
      <g
         id="flowRoot3346"
         style="font-style:normal;font-variant:normal;font-weight:bold;font-stretch:normal;font-size:125px;line-height:125%;font-family:Calibri;-inkscape-font-specification:'Sans Bold';letter-spacing:0px;word-spacing:0px;fill:#0092fa;fill-opacity:1;stroke:#000000;stroke-width:1px;stroke-linecap:butt;stroke-linejoin:miter;stroke-opacity:1"
         transform="translate(4,-21.5)">
        <g
           id="g4165">
          <path
             d="m 46.719238,117.30273 q 0,0.61036 -0.427246,1.09864 -0.366211,0.48828 -1.281738,0.79345 -0.915527,0.30518 -2.441406,0.48829 -1.525879,0.1831 -3.90625,0.1831 -2.319336,0 -3.90625,-0.1831 -1.525879,-0.18311 -2.441407,-0.48829 -0.915527,-0.30517 -1.342773,-0.79345 -0.366211,-0.48828 -0.366211,-1.09864 l 0,-74.584957 q 0,-0.610351 0.366211,-1.098632 0.427246,-0.488282 1.342773,-0.793457 0.976563,-0.305176 2.502442,-0.488282 1.525879,-0.183105 3.845215,-0.183105 2.380371,0 3.90625,0.183105 1.525879,0.183106 2.441406,0.488282 0.915527,0.305175 1.281738,0.793457 0.427246,0.488281 0.427246,1.098632 l 0,74.584957 z"
             style="font-size:125px;fill:#0092fa;fill-opacity:1;stroke:#000000;stroke-opacity:1"
             id="path4157" />
          <path
             d="m 110.86719,95.818359 q 0,6.225591 -2.31934,10.925291 -2.31933,4.69971 -6.28662,7.87354 -3.967285,3.11279 -9.277343,4.6997 -5.310059,1.58692 -11.352539,1.58692 -4.089356,0 -7.629395,-0.67139 -3.479004,-0.67138 -6.164551,-1.58691 -2.685547,-0.97656 -4.516601,-2.01416 -1.77002,-1.0376 -2.563477,-1.83106 -0.793457,-0.79345 -1.159668,-2.2583 -0.305176,-1.52588 -0.305176,-4.33349 0,-1.89209 0.122071,-3.17383 0.12207,-1.28174 0.366211,-2.0752 0.305175,-0.79345 0.732422,-1.09863 0.488281,-0.36621 1.098632,-0.36621 0.854493,0 2.380371,1.0376 1.586915,0.97656 4.028321,2.19726 2.441406,1.22071 5.79834,2.2583 3.417968,0.97657 7.873535,0.97657 2.929687,0 5.249023,-0.67139 2.319336,-0.73242 3.90625,-2.01416 1.647949,-1.28174 2.502442,-3.17383 0.854492,-1.89209 0.854492,-4.211425 0,-2.685547 -1.464844,-4.577637 -1.464844,-1.953125 -3.845215,-3.417969 -2.319336,-1.525879 -5.310058,-2.807617 -2.990723,-1.342773 -6.164551,-2.807617 -3.173828,-1.464844 -6.164551,-3.295899 -2.990723,-1.892089 -5.371094,-4.455566 -2.319336,-2.624512 -3.784179,-6.164551 -1.464844,-3.540039 -1.464844,-8.483887 0,-5.676269 2.075195,-9.94873 2.136231,-4.333496 5.67627,-7.141113 3.601074,-2.868653 8.422851,-4.272461 4.882813,-1.403809 10.314942,-1.403809 2.807617,0 5.615234,0.427246 2.807617,0.427246 5.249024,1.159668 2.44141,0.732422 4.3335,1.647949 1.89209,0.915528 2.50244,1.525879 0.61035,0.610352 0.79345,1.037598 0.24414,0.427246 0.36622,1.159668 0.1831,0.671387 0.24414,1.77002 0.061,1.037597 0.061,2.624511 0,1.77002 -0.12207,2.990723 -0.061,1.220703 -0.30518,2.01416 -0.1831,0.793457 -0.61035,1.159668 Q 104.88574,57 104.21436,57 q -0.67139,0 -2.13623,-0.854492 -1.46485,-0.854492 -3.601079,-1.831055 -2.136231,-1.037598 -4.943848,-1.831055 -2.807617,-0.854492 -6.164551,-0.854492 -2.624511,0 -4.577636,0.671387 -1.953125,0.610352 -3.295899,1.770019 -1.281738,1.098633 -1.953125,2.685547 -0.610351,1.586914 -0.610351,3.356934 0,2.624512 1.403808,4.577637 1.464844,1.89209 3.845215,3.417968 2.441406,1.464844 5.493164,2.807618 3.051758,1.281738 6.225586,2.746582 3.173828,1.464843 6.225586,3.356933 3.05176,1.831055 5.43213,4.455567 2.38037,2.563476 3.84521,6.103515 1.46485,3.479004 1.46485,8.239746 z"
             style="font-size:125px;fill:#0092fa;fill-opacity:1;stroke:#000000;stroke-opacity:1"
             id="path4159" />
          <path
             d="m 194.18018,79.094727 q 0,9.82666 -2.44141,17.578125 -2.44141,7.751468 -7.26318,13.183598 -4.82178,5.37109 -11.96289,8.23974 -7.08008,2.80762 -16.41846,2.80762 -9.21631,0 -16.11328,-2.38037 -6.83594,-2.44141 -11.41358,-7.38526 -4.57763,-4.94384 -6.89697,-12.573239 -2.2583,-7.629394 -2.2583,-18.066406 0,-9.582519 2.44141,-17.211914 2.4414,-7.69043 7.26318,-13.061523 4.82178,-5.371094 11.90185,-8.239746 7.14112,-2.868653 16.54053,-2.868653 8.97217,0 15.80811,2.380371 6.89697,2.380371 11.47461,7.324219 4.63867,4.943848 6.958,12.512207 2.38038,7.507324 2.38038,17.761231 z m -16.84571,0.854492 q 0,-6.225586 -0.97656,-11.291504 -0.97656,-5.126953 -3.35693,-8.728028 -2.31934,-3.662109 -6.22559,-5.615234 -3.90625,-2.01416 -9.76562,-2.01416 -5.92041,0 -9.8877,2.258301 -3.96728,2.197265 -6.40869,5.92041 -2.44141,3.723144 -3.47901,8.728027 -0.97656,4.943848 -0.97656,10.498047 0,6.469727 0.97656,11.657715 0.97657,5.126953 3.2959,8.789067 2.31934,3.6621 6.22559,5.61523 3.90625,1.89209 9.82666,1.89209 5.92041,0 9.88769,-2.19727 3.96729,-2.19726 6.4087,-5.981441 2.4414,-3.78418 3.41796,-8.789063 1.0376,-5.065918 1.0376,-10.742187 z"
             style="font-size:125px;fill:#0092fa;fill-opacity:1;stroke:#000000;stroke-opacity:1"
             id="path4161" />
          <path
             d="m 265.28613,117.11963 q 0,0.67139 -0.36621,1.2207 -0.30517,0.48828 -1.28174,0.85449 -0.91552,0.30518 -2.56347,0.48829 -1.64795,0.1831 -4.15039,0.1831 -3.96729,0 -5.73731,-0.30517 -1.70898,-0.30518 -2.50244,-0.91553 -0.73242,-0.61035 -1.15967,-1.46485 l -23.86474,-37.475582 0,37.475582 q 0,0.67139 -0.36621,1.15967 -0.36622,0.48828 -1.28174,0.85449 -0.91553,0.30518 -2.44141,0.48829 -1.52588,0.1831 -3.90625,0.1831 -2.31934,0 -3.90625,-0.1831 -1.52588,-0.18311 -2.44141,-0.48829 -0.91552,-0.36621 -1.34277,-0.85449 -0.36621,-0.48828 -0.36621,-1.15967 l 0,-74.401851 q 0,-0.671387 0.36621,-1.159668 0.42725,-0.488282 1.34277,-0.793457 0.91553,-0.305176 2.44141,-0.488282 1.58691,-0.183105 3.90625,-0.183105 2.38037,0 3.90625,0.183105 1.52588,0.183106 2.44141,0.488282 0.91552,0.305175 1.28174,0.793457 0.36621,0.488281 0.36621,1.159668 l 0,33.630371 23.13232,-33.569336 q 0.42725,-0.793457 1.0376,-1.281739 0.61035,-0.549316 1.58691,-0.854492 0.97656,-0.305176 2.50244,-0.427246 1.52588,-0.12207 3.90625,-0.12207 2.44141,0 4.02832,0.183105 1.58692,0.183106 2.50245,0.549317 0.97656,0.305176 1.34277,0.793457 0.36621,0.488281 0.36621,1.098633 0,1.037597 -0.54932,2.13623 -0.54931,1.098633 -2.07519,3.479004 l -21.66748,28.381348 23.6206,35.705569 q 1.34278,2.50244 1.58692,3.35693 0.30517,0.79346 0.30517,1.28174 z"
             style="font-size:125px;fill:#0092fa;fill-opacity:1;stroke:#000000;stroke-opacity:1"
             id="path4163" />
        </g>
      </g>
      <path
         inkscape:connector-curvature="0"
         id="path3354"
         d="m 123.10829,124.46862 0,74.9269 -45.115092,0 63.504392,78.88646 63.25921,-78.58188 -43.88914,0 0,-78.27729 -37.88196,0 z"
         style="fill:#0092fa;fill-opacity:1;fill-rule:evenodd;stroke:#000000;stroke-width:1px;stroke-linecap:butt;stroke-linejoin:miter;stroke-opacity:1" />
    </g>
  </g>
</svg>
