<?xml version="1.0" encoding="UTF-8" standalone="no"?>
<!-- Created with Inkscape (http://www.inkscape.org/) -->

<svg
   xmlns:dc="http://purl.org/dc/elements/1.1/"
   xmlns:cc="http://creativecommons.org/ns#"
   xmlns:rdf="http://www.w3.org/1999/02/22-rdf-syntax-ns#"
   xmlns:svg="http://www.w3.org/2000/svg"
   xmlns="http://www.w3.org/2000/svg"
   xmlns:sodipodi="http://sodipodi.sourceforge.net/DTD/sodipodi-0.dtd"
   xmlns:inkscape="http://www.inkscape.org/namespaces/inkscape"
   width="24"
   height="24"
   id="svg2"
   version="1.1"
   inkscape:version="0.91 r13725"
   sodipodi:docname="ras2dareaCreate.svg">
  <defs
     id="defs4" />
  <sodipodi:namedview
     id="base"
     pagecolor="#ffffff"
     bordercolor="#666666"
     borderopacity="1.0"
     inkscape:pageopacity="0.0"
     inkscape:pageshadow="2"
     inkscape:zoom="22.627417"
     inkscape:cx="10.773428"
     inkscape:cy="12.691467"
     inkscape:document-units="px"
     inkscape:current-layer="layer1"
     showgrid="false"
     inkscape:window-width="1842"
     inkscape:window-height="1181"
     inkscape:window-x="74"
     inkscape:window-y="-4"
     inkscape:window-maximized="1" />
  <metadata
     id="metadata7">
    <rdf:RDF>
      <cc:Work
         rdf:about="">
        <dc:format>image/svg+xml</dc:format>
        <dc:type
           rdf:resource="http://purl.org/dc/dcmitype/StillImage" />
        <dc:title></dc:title>
      </cc:Work>
    </rdf:RDF>
  </metadata>
  <g
     inkscape:label="Layer 1"
     inkscape:groupmode="layer"
     id="layer1"
     transform="translate(0,-1028.3622)">
    <g
       id="g4755"
       transform="matrix(0.69160368,-0.96880735,0.93387606,0.74191418,-963.42412,282.14852)">
      <path
         sodipodi:nodetypes="ccccc"
         inkscape:connector-curvature="0"
         id="path3803"
         d="m 1.293182,1031.2754 c 0.2114405,1.9734 0.7741426,8.5565 0.7741426,8.5565 7.8418715,-0.52 10.8508854,-0.1777 16.8513534,2.8972 l 3.584122,-6.8257 c -4.327029,-3.9647 -11.863908,-5.5711 -21.209618,-4.628 z"
         style="fill:none;fill-opacity:1;stroke:#000000;stroke-width:0.56613785;stroke-linecap:butt;stroke-linejoin:miter;stroke-miterlimit:4;stroke-dasharray:none;stroke-opacity:1" />
      <path
         inkscape:connector-curvature="0"
         id="path5560"
         d="m 3.3529986,1031.0881 c 0,0 0.4868657,7.0034 0.4494145,8.5764"
         style="fill:none;stroke:#000000;stroke-width:0.18871263;stroke-linecap:butt;stroke-linejoin:miter;stroke-miterlimit:4;stroke-dasharray:none;stroke-opacity:1" />
      <path
         inkscape:connector-curvature="0"
         id="path5562"
         d="m 5.4877176,1031.0507 c 0.1123536,1.7976 0.2996097,7.303 0.2247072,8.5389"
         style="fill:none;stroke:#000000;stroke-width:0.18871263;stroke-linecap:butt;stroke-linejoin:miter;stroke-miterlimit:4;stroke-dasharray:none;stroke-opacity:1" />
      <path
         inkscape:connector-curvature="0"
         id="path5564"
         d="m 10.431278,1039.8143 1.348243,-8.464"
         style="fill:none;stroke:#000000;stroke-width:0.18871263;stroke-linecap:butt;stroke-linejoin:miter;stroke-miterlimit:4;stroke-dasharray:none;stroke-opacity:1" />
      <path
         inkscape:connector-curvature="0"
         id="path5566"
         d="m 7.9220466,1039.5896 0.449414,-8.5015"
         style="fill:none;stroke:#000000;stroke-width:0.18871263;stroke-linecap:butt;stroke-linejoin:miter;stroke-miterlimit:4;stroke-dasharray:none;stroke-opacity:1" />
      <path
         inkscape:connector-curvature="0"
         id="path5568"
         d="m 12.828155,1040.2262 1.910012,-8.2392"
         style="fill:none;stroke:#000000;stroke-width:0.18871263;stroke-linecap:butt;stroke-linejoin:miter;stroke-miterlimit:4;stroke-dasharray:none;stroke-opacity:1" />
      <path
         inkscape:connector-curvature="0"
         id="path5570"
         d="M 15.786801,1041.3123 18.8578,1033.485"
         style="fill:none;stroke:#000000;stroke-width:0.18871263;stroke-linecap:butt;stroke-linejoin:miter;stroke-miterlimit:4;stroke-dasharray:none;stroke-opacity:1" />
      <path
         inkscape:connector-curvature="0"
         id="path5572"
         d="m 14.138948,1040.6382 2.80884,-7.9397"
         style="fill:none;stroke:#000000;stroke-width:0.18871263;stroke-linecap:butt;stroke-linejoin:miter;stroke-miterlimit:4;stroke-dasharray:none;stroke-opacity:1" />
      <path
         inkscape:connector-curvature="0"
         id="path5574"
         d="m 17.397203,1041.9864 3.445511,-7.2655"
         style="fill:none;stroke:#000000;stroke-width:0.18871263;stroke-linecap:butt;stroke-linejoin:miter;stroke-miterlimit:4;stroke-dasharray:none;stroke-opacity:1" />
      <path
         inkscape:connector-curvature="0"
         id="path5576"
         d="m 1.4429868,1032.9982 c 3.2208041,-0.1873 12.3963512,-1.0487 20.2611052,4.3817"
         style="fill:none;stroke:#000000;stroke-width:0.18871263;stroke-linecap:butt;stroke-linejoin:miter;stroke-miterlimit:4;stroke-dasharray:none;stroke-opacity:1" />
      <path
         inkscape:connector-curvature="0"
         id="path5578"
         d="m 1.5553405,1034.4588 c 8.5014255,-0.2248 13.0704725,0.4494 19.5869835,4.0447"
         style="fill:none;stroke:#000000;stroke-width:0.18871263;stroke-linecap:butt;stroke-linejoin:miter;stroke-miterlimit:4;stroke-dasharray:none;stroke-opacity:1" />
      <path
         inkscape:connector-curvature="0"
         id="path5580"
         d="m 1.7051453,1036.1815 c 7.4153393,-0.1872 10.7484977,-0.2622 18.7256057,3.5579"
         style="fill:none;stroke:#000000;stroke-width:0.18871263;stroke-linecap:butt;stroke-linejoin:miter;stroke-miterlimit:4;stroke-dasharray:none;stroke-opacity:1" />
      <path
         inkscape:connector-curvature="0"
         id="path5582"
         d="m 1.8549501,1037.9792 c 9.1755469,0 8.5388769,-0.824 17.8267769,3.2582"
         style="fill:none;stroke:#000000;stroke-width:0.18871263;stroke-linecap:butt;stroke-linejoin:miter;stroke-miterlimit:4;stroke-dasharray:none;stroke-opacity:1" />
    </g>
    <g
       style="display:inline"
       id="g3001"
       transform="matrix(0.69230716,0,0,0.69230716,1.8461674,1030.2084)">
      <rect
         ry="2.6149368"
         inkscape:export-ydpi="120"
         inkscape:export-xdpi="120"
         y="19"
         x="19"
         height="13"
         width="13"
         id="rect3563"
         style="display:inline;fill:#c4a000;fill-opacity:1;stroke:#000000;stroke-width:0;stroke-linejoin:round;stroke-miterlimit:4;stroke-dasharray:none;stroke-opacity:1"
         inkscape:export-filename="C:\Program Files\QGIS-Dev\themes\gis-0.1\mActionAddOgrLayer.png"
         rx="2.6149371" />
      <path
         inkscape:connector-curvature="0"
         sodipodi:nodetypes="ccsssc"
         id="path6992"
         d="m 20.3,25.499999 10.4,0 c 0,0 0,0 0,-2.6 C 30.7,20.3 30.05,20.3 25.5,20.3 c -4.55,0 -5.2,0 -5.2,2.599999 0,2.6 0,2.6 0,2.6 z"
         style="display:inline;opacity:0.3;fill:#fcffff;fill-rule:evenodd;stroke:none;enable-background:new" />
      <g
         transform="matrix(0.60271547,0,0,0.60365952,29.090173,29.540413)"
         id="text3831"
         style="font-style:normal;font-weight:normal;font-size:40px;line-height:125%;font-family:Sans;letter-spacing:0px;word-spacing:0px;fill:#ffffff;fill-opacity:1;stroke:#ffffff;stroke-width:0.49735793;stroke-miterlimit:4;stroke-dasharray:none;stroke-opacity:1">
        <path
           inkscape:connector-curvature="0"
           id="path3836"
           style="font-variant:normal;font-weight:bold;font-stretch:normal;font-family:'Century Schoolbook L';-inkscape-font-specification:'Century Schoolbook L Bold';fill:#ffffff;fill-opacity:1;stroke:#ffffff;stroke-width:0.49735793;stroke-miterlimit:4;stroke-dasharray:none;stroke-opacity:1"
           d="m -6.4566626,-5.8131979 0,0.76 c 0,1.039999 -0.1600005,1.7600009 -0.64,2.68 -0.7199993,1.55999844 -0.8,1.7600006 -0.8,2.36 0,1.1599988 0.880001,2.12 1.92,2.12 1.0799989,0 1.92,-0.9600012 1.92,-2.16 0,-0.3999996 -0.1200003,-0.92000052 -0.4,-1.44 -0.9199991,-1.959998 -1,-2.2800013 -1,-3.56 l 0,-0.76 0.64,0.4 c 0.8399992,0.4799995 1.4800006,1.0400008 2.04,1.84 1.3199987,1.7999982 1.7600011,2.16 2.84,2.16 0.999999,0 1.8,-0.760001 1.8,-1.76 0,-1.2399988 -1.04000156,-2.1600001 -2.6,-2.28 -1.959998,-0.1199999 -2.3200012,-0.2000007 -3.56,-0.88 l -0.64,-0.36 0.64,-0.36 c 0.9199991,-0.5199995 1.600001,-0.76 2.64,-0.8 1.5999984,-0.1599998 1.72000048,-0.1600002 2.2,-0.36 0.7999992,-0.3999996 1.32,-1.1200008 1.32,-1.9600001 0,-1.039999 -0.840001,-1.84 -1.88,-1.84 -0.87999912,0 -1.6000006,0.440001 -2.24,1.4 -1.1199989,1.6799984 -1.3600012,1.9200008 -2.56,2.6400001 l -0.64,0.4 0,-0.76 c 0,-0.999999 0.1600005,-1.7600011 0.64,-2.6800001 0.7599992,-1.599998 0.8,-1.76 0.8,-2.32 0,-1.199999 -0.8800011,-2.16 -1.96,-2.16 -1.039999,0 -1.92,0.960001 -1.92,2.12 0,0.44 0.1200003,0.960001 0.4,1.48 0.959999,1.9999981 1.04,2.2800014 1.04,3.5600001 l 0,0.76 -0.64,-0.4 c -0.9199991,-0.5199995 -1.4400006,-1.0400008 -2.04,-1.88 -0.7999992,-1.1999991 -0.8000003,-1.2000001 -1.1200004,-1.5200001 -0.439999,-0.399999 -1.08,-0.64 -1.6,-0.64 -1.079999,0 -1.92,0.840001 -1.92,1.84 0,1.2399989 1.000002,2.1200002 2.56,2.2400001 2.0399984,0.1199999 2.3600016,0.2000007 3.6000004,0.88 l 0.64,0.36 -0.64,0.4 c -0.8399992,0.4799995 -1.640001,0.7200001 -2.6400004,0.8 -1.559998,0.08 -1.68,0.1200002 -2.2,0.32 -0.799999,0.3599996 -1.32,1.1200008 -1.32,1.96 0,0.999999 0.840001,1.84 1.88,1.84 0.88,0 1.640001,-0.4800009 2.2400004,-1.4 1.0799989,-1.5999984 1.4000012,-1.9600007 2.56,-2.64 l 0.64,-0.4" />
      </g>
    </g>
  </g>
</svg>
