<?xml version="1.0" encoding="UTF-8" standalone="no"?>
<!-- Created with Inkscape (http://www.inkscape.org/) -->

<svg
   xmlns:dc="http://purl.org/dc/elements/1.1/"
   xmlns:cc="http://creativecommons.org/ns#"
   xmlns:rdf="http://www.w3.org/1999/02/22-rdf-syntax-ns#"
   xmlns:svg="http://www.w3.org/2000/svg"
   xmlns="http://www.w3.org/2000/svg"
   xmlns:sodipodi="http://sodipodi.sourceforge.net/DTD/sodipodi-0.dtd"
   xmlns:inkscape="http://www.inkscape.org/namespaces/inkscape"
   width="24"
   height="24"
   id="svg2"
   version="1.1"
   inkscape:version="0.91 r13725"
   sodipodi:docname="ras2dareaCreate.svg">
  <defs
     id="defs4" />
  <sodipodi:namedview
     id="base"
     pagecolor="#ffffff"
     bordercolor="#666666"
     borderopacity="1.0"
     inkscape:pageopacity="0.0"
     inkscape:pageshadow="2"
     inkscape:zoom="8"
     inkscape:cx="5.9245216"
     inkscape:cy="-2.2247065"
     inkscape:document-units="px"
     inkscape:current-layer="layer1"
     showgrid="false"
     inkscape:window-width="1842"
     inkscape:window-height="1181"
     inkscape:window-x="74"
     inkscape:window-y="-4"
     inkscape:window-maximized="1"
     inkscape:object-paths="false"
     inkscape:snap-others="false"
     inkscape:snap-bbox="false"
     inkscape:snap-smooth-nodes="false"
     inkscape:object-nodes="true" />
  <metadata
     id="metadata7">
    <rdf:RDF>
      <cc:Work
         rdf:about="">
        <dc:format>image/svg+xml</dc:format>
        <dc:type
           rdf:resource="http://purl.org/dc/dcmitype/StillImage" />
        <dc:title />
      </cc:Work>
    </rdf:RDF>
  </metadata>
  <g
     inkscape:label="Layer 1"
     inkscape:groupmode="layer"
     id="layer1"
     transform="translate(0,-1028.3622)">
    <g
       style="display:inline"
       id="g3001"
       transform="matrix(0.69230716,0,0,0.69230716,1.8461674,1030.2084)">
      <rect
         ry="2.6149368"
         inkscape:export-ydpi="120"
         inkscape:export-xdpi="120"
         y="19"
         x="19"
         height="13"
         width="13"
         id="rect3563"
         style="display:inline;fill:#c4a000;fill-opacity:1;stroke:#000000;stroke-width:0;stroke-linejoin:round;stroke-miterlimit:4;stroke-dasharray:none;stroke-opacity:1"
         inkscape:export-filename="C:\Program Files\QGIS-Dev\themes\gis-0.1\mActionAddOgrLayer.png"
         rx="2.6149371" />
      <path
         inkscape:connector-curvature="0"
         sodipodi:nodetypes="ccsssc"
         id="path6992"
         d="m 20.3,25.499999 10.4,0 c 0,0 0,0 0,-2.6 C 30.7,20.3 30.05,20.3 25.5,20.3 c -4.55,0 -5.2,0 -5.2,2.599999 0,2.6 0,2.6 0,2.6 z"
         style="display:inline;opacity:0.3;fill:#fcffff;fill-rule:evenodd;stroke:none;enable-background:new" />
      <g
         transform="matrix(0.60271547,0,0,0.60365952,29.090173,29.540413)"
         id="text3831"
         style="font-style:normal;font-weight:normal;font-size:40px;line-height:125%;font-family:Sans;letter-spacing:0px;word-spacing:0px;fill:#ffffff;fill-opacity:1;stroke:#ffffff;stroke-width:0.49735793;stroke-miterlimit:4;stroke-dasharray:none;stroke-opacity:1">
        <path
           inkscape:connector-curvature="0"
           id="path3836"
           style="font-variant:normal;font-weight:bold;font-stretch:normal;font-family:'Century Schoolbook L';-inkscape-font-specification:'Century Schoolbook L Bold';fill:#ffffff;fill-opacity:1;stroke:#ffffff;stroke-width:0.49735793;stroke-miterlimit:4;stroke-dasharray:none;stroke-opacity:1"
           d="m -6.4566626,-5.8131979 0,0.76 c 0,1.039999 -0.1600005,1.7600009 -0.64,2.68 -0.7199993,1.55999844 -0.8,1.7600006 -0.8,2.36 0,1.1599988 0.880001,2.12 1.92,2.12 1.0799989,0 1.92,-0.9600012 1.92,-2.16 0,-0.3999996 -0.1200003,-0.92000052 -0.4,-1.44 -0.9199991,-1.959998 -1,-2.2800013 -1,-3.56 l 0,-0.76 0.64,0.4 c 0.8399992,0.4799995 1.4800006,1.0400008 2.04,1.84 1.3199987,1.7999982 1.7600011,2.16 2.84,2.16 0.999999,0 1.8,-0.760001 1.8,-1.76 0,-1.2399988 -1.04000156,-2.1600001 -2.6,-2.28 -1.959998,-0.1199999 -2.3200012,-0.2000007 -3.56,-0.88 l -0.64,-0.36 0.64,-0.36 c 0.9199991,-0.5199995 1.600001,-0.76 2.64,-0.8 1.5999984,-0.1599998 1.72000048,-0.1600002 2.2,-0.36 0.7999992,-0.3999996 1.32,-1.1200008 1.32,-1.9600001 0,-1.039999 -0.840001,-1.84 -1.88,-1.84 -0.87999912,0 -1.6000006,0.440001 -2.24,1.4 -1.1199989,1.6799984 -1.3600012,1.9200008 -2.56,2.6400001 l -0.64,0.4 0,-0.76 c 0,-0.999999 0.1600005,-1.7600011 0.64,-2.6800001 0.7599992,-1.599998 0.8,-1.76 0.8,-2.32 0,-1.199999 -0.8800011,-2.16 -1.96,-2.16 -1.039999,0 -1.92,0.960001 -1.92,2.12 0,0.44 0.1200003,0.960001 0.4,1.48 0.959999,1.9999981 1.04,2.2800014 1.04,3.5600001 l 0,0.76 -0.64,-0.4 c -0.9199991,-0.5199995 -1.4400006,-1.0400008 -2.04,-1.88 -0.7999992,-1.1999991 -0.8000003,-1.2000001 -1.1200004,-1.5200001 -0.439999,-0.399999 -1.08,-0.64 -1.6,-0.64 -1.079999,0 -1.92,0.840001 -1.92,1.84 0,1.2399989 1.000002,2.1200002 2.56,2.2400001 2.0399984,0.1199999 2.3600016,0.2000007 3.6000004,0.88 l 0.64,0.36 -0.64,0.4 c -0.8399992,0.4799995 -1.640001,0.7200001 -2.6400004,0.8 -1.559998,0.08 -1.68,0.1200002 -2.2,0.32 -0.799999,0.3599996 -1.32,1.1200008 -1.32,1.96 0,0.999999 0.840001,1.84 1.88,1.84 0.88,0 1.640001,-0.4800009 2.2400004,-1.4 1.0799989,-1.5999984 1.4000012,-1.9600007 2.56,-2.64 l 0.64,-0.4" />
      </g>
    </g>
    <g
       id="g7969">
      <path
         sodipodi:nodetypes="czzzzccczzzzzzc"
         inkscape:connector-curvature="0"
         id="path4751"
         d="m 5.8614874,1037.0533 c -1.4579342,3.717 -2.508867,3.5976 -3.8444196,6.0593 -1.33555262,2.4616 -1.26764997,3.9103 -0.5270598,5.6098 0.7405902,1.6995 2.0631041,1.6452 3.417462,1.6521 1.3543579,0.01 4.2260038,-1.0107 4.7848141,-2.1256 0.5588099,-1.1149 1.1054779,-1.4142 1.9309009,-2.4733 1.454562,-2.2986 1.689954,-2.436 3.937041,-3.1518 5.982004,-2.6101 7.439591,-5.6036 6.9366,-10.292 -0.008,-0.8846 -0.615648,-2.9725 -2.154933,-2.9323 -1.539285,0.04 -5.210062,0.3099 -6.684654,0.1708 -1.474592,-0.1391 -2.745227,3.0766 -4.251841,2.8937 -1.5066142,-0.1829 -0.6282329,0.2315 -2.5181587,-0.8167 -1.8899258,-1.0481 -4.1283563,-2.8865 -5.1177481,0.01 -0.98939174,2.8953 5.5499303,1.6803 4.0919962,5.3972 z"
         style="fill:none;fill-rule:evenodd;stroke:#000000;stroke-width:1px;stroke-linecap:butt;stroke-linejoin:miter;stroke-opacity:1" />
      <circle
         r="0.5"
         cy="1032.3865"
         cx="4.6845822"
         id="path4767-63-6"
         style="opacity:0.922;fill:#000000;fill-opacity:1;fill-rule:evenodd;stroke:none;stroke-width:0.67400002;stroke-linecap:butt;stroke-linejoin:round;stroke-miterlimit:4;stroke-dasharray:none;stroke-dashoffset:0;stroke-opacity:1" />
      <circle
         r="0.5"
         cy="1034.0658"
         cx="7.5572038"
         id="path4767-63-7"
         style="opacity:0.922;fill:#000000;fill-opacity:1;fill-rule:evenodd;stroke:none;stroke-width:0.67400002;stroke-linecap:butt;stroke-linejoin:round;stroke-miterlimit:4;stroke-dasharray:none;stroke-dashoffset:0;stroke-opacity:1" />
      <circle
         r="0.5"
         cy="1034.3309"
         cx="11.623068"
         id="path4767-63-9"
         style="opacity:0.922;fill:#000000;fill-opacity:1;fill-rule:evenodd;stroke:none;stroke-width:0.67400002;stroke-linecap:butt;stroke-linejoin:round;stroke-miterlimit:4;stroke-dasharray:none;stroke-dashoffset:0;stroke-opacity:1" />
      <circle
         r="0.5"
         cy="1032.2949"
         cx="19.355747"
         id="path4767-63-69"
         style="opacity:0.922;fill:#000000;fill-opacity:1;fill-rule:evenodd;stroke:none;stroke-width:0.67400002;stroke-linecap:butt;stroke-linejoin:round;stroke-miterlimit:4;stroke-dasharray:none;stroke-dashoffset:0;stroke-opacity:1" />
      <circle
         r="0.5"
         cy="1036.2421"
         cx="18.598164"
         id="path4767-63-61"
         style="opacity:0.922;fill:#000000;fill-opacity:1;fill-rule:evenodd;stroke:none;stroke-width:0.67400002;stroke-linecap:butt;stroke-linejoin:round;stroke-miterlimit:4;stroke-dasharray:none;stroke-dashoffset:0;stroke-opacity:1" />
      <circle
         r="0.5"
         cy="1037.9928"
         cx="12.031539"
         id="path4767-63-2"
         style="opacity:0.922;fill:#000000;fill-opacity:1;fill-rule:evenodd;stroke:none;stroke-width:0.67400002;stroke-linecap:butt;stroke-linejoin:round;stroke-miterlimit:4;stroke-dasharray:none;stroke-dashoffset:0;stroke-opacity:1" />
      <circle
         r="0.5"
         cy="1038.7946"
         cx="7.9107571"
         id="path4767-63-0"
         style="opacity:0.922;fill:#000000;fill-opacity:1;fill-rule:evenodd;stroke:none;stroke-width:0.67400002;stroke-linecap:butt;stroke-linejoin:round;stroke-miterlimit:4;stroke-dasharray:none;stroke-dashoffset:0;stroke-opacity:1" />
      <circle
         r="0.5"
         cy="1047.8544"
         cx="3.9332817"
         id="path4767-63-1"
         style="opacity:0.922;fill:#000000;fill-opacity:1;fill-rule:evenodd;stroke:none;stroke-width:0.67400002;stroke-linecap:butt;stroke-linejoin:round;stroke-miterlimit:4;stroke-dasharray:none;stroke-dashoffset:0;stroke-opacity:1" />
      <circle
         r="0.5"
         cy="1044.7607"
         cx="3.6239226"
         id="path4767-63-3"
         style="opacity:0.922;fill:#000000;fill-opacity:1;fill-rule:evenodd;stroke:none;stroke-width:0.67400002;stroke-linecap:butt;stroke-linejoin:round;stroke-miterlimit:4;stroke-dasharray:none;stroke-dashoffset:0;stroke-opacity:1" />
      <circle
         r="0.5"
         cy="1045.3353"
         cx="7.9991455"
         id="path4767-63-06"
         style="opacity:0.922;fill:#000000;fill-opacity:1;fill-rule:evenodd;stroke:none;stroke-width:0.67400002;stroke-linecap:butt;stroke-linejoin:round;stroke-miterlimit:4;stroke-dasharray:none;stroke-dashoffset:0;stroke-opacity:1" />
      <circle
         r="0.5"
         cy="1041.844"
         cx="6.2755728"
         id="path4767-63-4"
         style="opacity:0.922;fill:#000000;fill-opacity:1;fill-rule:evenodd;stroke:none;stroke-width:0.67400002;stroke-linecap:butt;stroke-linejoin:round;stroke-miterlimit:4;stroke-dasharray:none;stroke-dashoffset:0;stroke-opacity:1" />
      <circle
         r="0.5"
         cy="1041.9324"
         cx="11.490484"
         id="path4767-63-32"
         style="opacity:0.922;fill:#000000;fill-opacity:1;fill-rule:evenodd;stroke:none;stroke-width:0.67400002;stroke-linecap:butt;stroke-linejoin:round;stroke-miterlimit:4;stroke-dasharray:none;stroke-dashoffset:0;stroke-opacity:1" />
      <circle
         r="0.5"
         cy="1038.912"
         cx="16.240707"
         id="path4767-63-44"
         style="opacity:0.922;fill:#000000;fill-opacity:1;fill-rule:evenodd;stroke:none;stroke-width:0.67400002;stroke-linecap:butt;stroke-linejoin:round;stroke-miterlimit:4;stroke-dasharray:none;stroke-dashoffset:0;stroke-opacity:1" />
      <circle
         r="0.5"
         cy="1031.6793"
         cx="14.805048"
         id="path4767-63-66"
         style="opacity:0.922;fill:#000000;fill-opacity:1;fill-rule:evenodd;stroke:none;stroke-width:0.67400002;stroke-linecap:butt;stroke-linejoin:round;stroke-miterlimit:4;stroke-dasharray:none;stroke-dashoffset:0;stroke-opacity:1" />
      <circle
         r="0.5"
         cy="1035.2698"
         cx="15.026019"
         id="path4767-63-22"
         style="opacity:0.922;fill:#000000;fill-opacity:1;fill-rule:evenodd;stroke:none;stroke-width:0.67400002;stroke-linecap:butt;stroke-linejoin:round;stroke-miterlimit:4;stroke-dasharray:none;stroke-dashoffset:0;stroke-opacity:1" />
    </g>
  </g>
</svg>
