<?xml version="1.0" encoding="UTF-8" standalone="no"?>
<!-- Created with Inkscape (http://www.inkscape.org/) -->

<svg
   xmlns:dc="http://purl.org/dc/elements/1.1/"
   xmlns:cc="http://creativecommons.org/ns#"
   xmlns:rdf="http://www.w3.org/1999/02/22-rdf-syntax-ns#"
   xmlns:svg="http://www.w3.org/2000/svg"
   xmlns="http://www.w3.org/2000/svg"
   xmlns:sodipodi="http://sodipodi.sourceforge.net/DTD/sodipodi-0.dtd"
   xmlns:inkscape="http://www.inkscape.org/namespaces/inkscape"
   width="300"
   height="300"
   id="svg2"
   version="1.1"
   inkscape:version="0.48.5 r10040"
   sodipodi:docname="qras.svg">
  <defs
     id="defs4" />
  <sodipodi:namedview
     id="base"
     pagecolor="#ffffff"
     bordercolor="#666666"
     borderopacity="1.0"
     inkscape:pageopacity="0.0"
     inkscape:pageshadow="2"
     inkscape:zoom="2"
     inkscape:cx="179.72841"
     inkscape:cy="170.99858"
     inkscape:document-units="px"
     inkscape:current-layer="layer2"
     showgrid="false"
     inkscape:window-width="1842"
     inkscape:window-height="1181"
     inkscape:window-x="74"
     inkscape:window-y="-4"
     inkscape:window-maximized="1" />
  <metadata
     id="metadata7">
    <rdf:RDF>
      <cc:Work
         rdf:about="">
        <dc:format>image/svg+xml</dc:format>
        <dc:type
           rdf:resource="http://purl.org/dc/dcmitype/StillImage" />
        <dc:title></dc:title>
      </cc:Work>
    </rdf:RDF>
  </metadata>
  <g
     inkscape:label="Layer 1"
     inkscape:groupmode="layer"
     id="layer1"
     transform="translate(0,-752.36218)">
    <rect
       style="opacity:0.8;fill:#008000;stroke:#000000;stroke-width:0.99999994;stroke-linecap:round;stroke-miterlimit:4;stroke-opacity:1;stroke-dasharray:none;stroke-dashoffset:0"
       id="rect2985"
       width="299"
       height="299"
       x="0.49999997"
       y="752.86218" />
    <path
       style="fill:#0000ff;stroke:#000000;stroke-width:1px;stroke-linecap:butt;stroke-linejoin:miter;stroke-opacity:1"
       d="m 299.17671,834.82265 c 0,0 -34.09236,12.92645 -34.34096,13.04105 -7.29458,3.36256 -14.78962,8.86592 -21.87917,13.41053 -7.81656,3.51816 -15.82579,9.98108 -25.25381,12.12183 -10.76615,5.56954 -22.25806,10.23182 -34.34519,12.12183 -9.88965,2.95154 -22.66372,6.72244 -30.80965,8.5863 -9.03267,3.68184 -19.60791,6.61283 -27.51786,12.32973 -5.36359,1.8606 -6.09381,10.84365 0.24374,11.40885 5.49101,2.41846 12.03463,4.51196 15.71743,9.59576 3.07295,4.97191 1.50556,11.38978 -4.10068,13.13268 -8.03703,3.06616 -15.95597,5.70329 -24.24366,7.07106 -8.27445,0.74909 -16.438686,3.40844 -24.785086,5.05318 -5.53869,2.73794 -11.52691,5.18049 -17.64132,7.57373 -7.23701,2.12319 -13.88958,6.15023 -21.22883,8.64193 -7.51408,1.87509 -13.31589,4.43697 -20.18742,6.00528 -5.30165,1.12212 -10.8438,1.73001 -14.64721,4.04061 -7.4704904,4.82017 -8.2928904,4.54813 -13.29918042,7.72931 0,0 0,17.88959 0,18.02959 2.87411002,-2.7661 11.68113042,-3.1538 16.32029042,-5.05077 6.91055,-1.57723 14.88733,-2.78149 21.22255,-5.55584 6.09342,-3.7916 11.33799,-9.67923 18.68782,-12.12183 6.02117,-3.00767 13.17393,-5.3459 20.70813,-7.07107 7.63422,-0.53963 15.26774,-2.37111 22.728426,-4.04061 6.46976,-1.96614 13.16552,-3.53134 19.69798,-5.55584 6.70858,-2.11917 12.85551,-5.57235 19.19289,-8.08122 4.87796,-2.37754 9.36601,-6.39082 15.15229,-9.09137 4.69802,-2.08495 15.02961,-9.41319 15.8363,-14.35153 3.68509,-0.82119 6.35752,-7.79241 -3.5,-14.19797 1.53102,-3.08422 -26.47908,-4.18186 -7.18909,-9.57107 5.83742,-2.52083 17.30883,-5.45605 23.43333,-7.02431 2.93677,-2.55596 10.63186,-5.74593 13.84587,-8.3932 3.77609,-3.44592 11.37336,-4.38352 17.17259,-5.55584 6.37232,-0.97685 14.19559,-2.65154 18.68782,-5.05077 4.92854,-4.15178 7.43622,-8.52641 13.13199,-11.11167 5.40729,-2.96513 10.35065,-6.04546 14.12466,-9.66703 3.64996,-2.52773 6.39239,-5.8618 10.62407,-7.50557 4.9457,-1.51284 8.72886,-5.19196 14.64722,-4.54568 4.28932,-0.91549 10.16648,-1.93585 13.99683,-2.87421 -0.32063,-2.97588 -0.25755,-8.51778 -0.20311,-13.47585 z"
       id="path3763"
       inkscape:connector-curvature="0"
       sodipodi:nodetypes="csccccccccccccccccccccccccccccccccccccc" />
  </g>
  <g
     inkscape:groupmode="layer"
     id="layer2"
     inkscape:label="qras">
    <g
       transform="translate(-100.88096,-194.17065)"
       style="font-size:72px;font-style:normal;font-variant:normal;font-weight:bold;font-stretch:normal;line-height:125%;letter-spacing:0px;word-spacing:0px;fill:#000000;fill-opacity:1;stroke:none;font-family:Calibri;-inkscape-font-specification:Sans Bold"
       id="flowRoot3755">
      <path
         d="m 200.49023,283.11836 c -7e-5,1.17187 -0.057,2.11588 -0.17089,2.83203 -0.11401,0.71614 -0.26863,1.26952 -0.46387,1.66016 -0.19538,0.39061 -0.40697,0.64289 -0.63477,0.75683 -0.22793,0.11392 -0.47207,0.17089 -0.73242,0.1709 -1.07428,-10e-6 -2.48216,-0.29298 -4.22363,-0.87891 -1.7416,-0.58594 -3.62148,-1.42416 -5.63965,-2.51464 -2.01828,-1.09051 -4.0772,-2.42514 -6.17676,-4.00391 -2.09966,-1.57878 -4.04464,-3.39356 -5.83496,-5.44434 -1.49744,0.6836 -3.31222,1.27767 -5.44433,1.78223 -2.1322,0.50456 -4.50037,0.75684 -7.1045,0.75684 -4.91539,0 -9.20412,-0.62663 -12.86621,-1.87989 -3.66212,-1.25325 -6.71388,-3.19823 -9.15527,-5.83496 -2.44142,-2.63671 -4.27247,-5.99771 -5.49317,-10.083 -1.2207,-4.08527 -1.83105,-8.94366 -1.83105,-14.5752 0,-5.11064 0.65104,-9.70862 1.95312,-13.79395 1.30208,-4.08523 3.23893,-7.55203 5.81055,-10.40039 2.5716,-2.84824 5.75357,-5.03737 9.5459,-6.56738 3.79229,-1.52988 8.19496,-2.29486 13.20801,-2.29492 4.72001,6e-5 8.89481,0.63483 12.52441,1.9043 3.62951,1.26959 6.6894,3.21457 9.17969,5.83496 2.49018,2.62049 4.37819,5.93267 5.66406,9.93652 1.28575,4.00395 1.92865,8.74027 1.92871,14.20898 -6e-5,2.83207 -0.18723,5.4932 -0.56152,7.9834 -0.37441,2.49026 -0.91966,4.79332 -1.63574,6.90918 -0.71621,2.1159 -1.59511,4.05275 -2.63672,5.81055 -1.04173,1.75782 -2.22988,3.30404 -3.56445,4.63867 2.01817,1.75782 3.80853,3.09245 5.37109,4.00391 1.56244,0.91146 2.87266,1.59505 3.93066,2.05078 1.05788,0.45573 1.90423,0.78939 2.53907,1.00098 0.63469,0.21158 1.13111,0.48828 1.48925,0.83007 0.35801,0.3418 0.61842,0.92774 0.78125,1.75782 0.16269,0.83007 0.24407,1.97753 0.24414,3.44238 z m -19.43359,-37.74414 c -5e-5,-3.28773 -0.26047,-6.28252 -0.78125,-8.98438 -0.52088,-2.70178 -1.40793,-5.02111 -2.66113,-6.958 -1.2533,-1.9368 -2.9216,-3.4342 -5.00489,-4.49219 -2.08337,-1.05789 -4.68753,-1.58686 -7.8125,-1.58692 -3.15758,6e-5 -5.79429,0.586 -7.91015,1.75782 -2.11591,1.17192 -3.82489,2.7507 -5.12695,4.73632 -1.30211,1.98573 -2.2217,4.30506 -2.75879,6.95801 -0.53713,2.65304 -0.80568,5.44437 -0.80567,8.37403 -1e-5,3.4831 0.2604,6.60809 0.78125,9.375 0.52082,2.76694 1.39972,5.12697 2.63672,7.08007 1.23696,1.95314 2.89711,3.4424 4.98047,4.46778 2.08331,1.0254 4.70375,1.53809 7.86133,1.53808 3.15751,1e-5 5.79423,-0.58592 7.91015,-1.75781 2.11585,-1.17186 3.82483,-2.76691 5.12696,-4.78516 1.30203,-2.01821 2.22163,-4.37823 2.75879,-7.08007 0.53706,-2.7018 0.80561,-5.58266 0.80566,-8.64258 z"
         style="font-size:100px"
         id="path3795" />
      <path
         d="m 253.12695,275.45234 c -5e-5,0.35808 -0.0651,0.65918 -0.19531,0.90332 -0.13026,0.24415 -0.43951,0.4476 -0.92773,0.61036 -0.48834,0.16276 -1.20448,0.27669 -2.14844,0.34179 -0.94406,0.0651 -2.22987,0.0977 -3.85742,0.0977 -1.36724,0 -2.45773,-0.0325 -3.27149,-0.0977 -0.81384,-0.0651 -1.45675,-0.18717 -1.92871,-0.36621 -0.47204,-0.17903 -0.8057,-0.4069 -1.00098,-0.68359 -0.19535,-0.27669 -0.35811,-0.61035 -0.48828,-1.00098 l -5.66406,-14.11133 c -0.68363,-1.59503 -1.35094,-3.01105 -2.00195,-4.24804 -0.65108,-1.23696 -1.37536,-2.27049 -2.17285,-3.10059 -0.79756,-0.83005 -1.71715,-1.45668 -2.75879,-1.87988 -1.0417,-0.42315 -2.24612,-0.63474 -3.61328,-0.63477 l -4.00391,0 0,24.07227 c -2e-5,0.32552 -0.10581,0.61849 -0.31738,0.8789 -0.21161,0.26042 -0.56155,0.47201 -1.04981,0.63477 -0.4883,0.16276 -1.13934,0.29297 -1.95312,0.39062 -0.81382,0.0977 -1.85549,0.14649 -3.125,0.14649 -1.23699,0 -2.27052,-0.0488 -3.10059,-0.14649 -0.83009,-0.0976 -1.48926,-0.22786 -1.97754,-0.39062 -0.48829,-0.16276 -0.83008,-0.37435 -1.02539,-0.63477 -0.19532,-0.26041 -0.29297,-0.55338 -0.29297,-0.8789 l 0,-57.37305 c 0,-1.43223 0.36621,-2.46576 1.09864,-3.10059 0.73241,-0.6347 1.63573,-0.95208 2.70996,-0.95214 l 16.35742,0 c 1.66013,6e-5 3.02731,0.0326 4.10156,0.0976 1.07419,0.0652 2.05075,0.14655 2.92969,0.24414 2.53902,0.35814 4.82581,0.97663 6.86035,1.85547 2.03446,0.87897 3.75972,2.02643 5.17578,3.44238 1.41597,1.41608 2.49833,3.09251 3.24707,5.0293 0.74865,1.9369 1.123,4.15858 1.12305,6.66504 -5e-5,2.11593 -0.26861,4.04464 -0.80567,5.78613 -0.53715,1.74158 -1.32654,3.29594 -2.36816,4.66309 -1.04171,1.36722 -2.32752,2.55537 -3.85742,3.56445 -1.52999,1.00915 -3.27153,1.82295 -5.22461,2.44141 0.94397,0.45576 1.83101,1.00914 2.66113,1.66015 0.83004,0.65107 1.61129,1.44046 2.34375,2.36817 0.73238,0.92776 1.42411,1.9857 2.0752,3.17383 0.65099,1.18817 1.28576,2.53094 1.90429,4.02832 l 5.32227,12.45117 c 0.48823,1.23698 0.81375,2.1403 0.97656,2.70996 0.16271,0.56966 0.24409,1.01725 0.24414,1.34277 z m -16.55273,-42.87109 c -4e-5,-2.08329 -0.47204,-3.8411 -1.41602,-5.27344 -0.94404,-1.43224 -2.49026,-2.44135 -4.63867,-3.02734 -0.65107,-0.16271 -1.39163,-0.29292 -2.22168,-0.39063 -0.8301,-0.0976 -1.97756,-0.14643 -3.44238,-0.14648 l -5.76172,0 0,17.91992 6.54297,0 c 1.82289,4e-5 3.41794,-0.21969 4.78515,-0.65918 1.36716,-0.43942 2.50648,-1.0579 3.41797,-1.85547 0.91143,-0.79748 1.59502,-1.74963 2.05078,-2.85644 0.4557,-1.10673 0.68356,-2.34371 0.6836,-3.71094 z"
         style="font-size:100px"
         id="path3797" />
      <path
         d="m 314.25977,272.32734 c 0.39056,1.17188 0.6347,2.09962 0.73242,2.78321 0.0976,0.68359 -0.0326,1.19629 -0.39063,1.53808 -0.35813,0.3418 -0.99289,0.55339 -1.90429,0.63477 -0.91152,0.0814 -2.16477,0.12207 -3.75977,0.12207 -1.66021,0 -2.95415,-0.0244 -3.88184,-0.0732 -0.92778,-0.0488 -1.63579,-0.14649 -2.12402,-0.29297 -0.48833,-0.14649 -0.83012,-0.34994 -1.02539,-0.61035 -0.19536,-0.26042 -0.35812,-0.60222 -0.48828,-1.02539 l -4.24805,-12.69532 -23.73047,0 -4.0039,12.35352 c -0.13023,0.45573 -0.30112,0.83822 -0.5127,1.14746 -0.2116,0.30925 -0.5534,0.55339 -1.02539,0.73242 -0.47202,0.17904 -1.13933,0.30111 -2.00195,0.36621 -0.86264,0.0651 -1.99383,0.0977 -3.39356,0.0977 -1.4974,0 -2.66927,-0.0488 -3.51562,-0.14649 -0.84636,-0.0976 -1.4323,-0.33365 -1.75781,-0.708 -0.32553,-0.37435 -0.43946,-0.90332 -0.3418,-1.58692 0.0976,-0.68359 0.34179,-1.59505 0.73242,-2.73437 L 277.10156,216.175 c 0.19529,-0.55332 0.42316,-1.00091 0.6836,-1.34277 0.26039,-0.34174 0.67543,-0.60215 1.24511,-0.78125 0.56964,-0.17898 1.35903,-0.29291 2.36817,-0.3418 1.00909,-0.0488 2.34372,-0.0732 4.0039,-0.0732 1.92054,6e-5 3.45049,0.0245 4.58985,0.0732 1.13928,0.0489 2.02633,0.16282 2.66113,0.3418 0.63473,0.1791 1.09046,0.44765 1.36719,0.80566 0.27665,0.35814 0.51265,0.84642 0.70801,1.46484 z m -29.00391,-46.33789 -0.0488,0 -8.93555,26.85547 17.91993,0 z"
         style="font-size:100px"
         id="path3799" />
      <path
         d="m 360.5,258.16719 c -4e-5,3.32033 -0.61853,6.23373 -1.85547,8.74023 -1.23702,2.50652 -2.91345,4.59799 -5.0293,6.27442 -2.11592,1.67643 -4.58987,2.93782 -7.42187,3.78418 -2.83206,0.84635 -5.8594,1.26953 -9.08203,1.26953 -2.18101,0 -4.20738,-0.17904 -6.0791,-0.53711 -1.87176,-0.35808 -3.52378,-0.78939 -4.95606,-1.29395 -1.4323,-0.50455 -2.62859,-1.03352 -3.58887,-1.58691 -0.96029,-0.55338 -1.65202,-1.04167 -2.07519,-1.46485 -0.42318,-0.42317 -0.72429,-1.03352 -0.90332,-1.83105 -0.17904,-0.79752 -0.26856,-1.94498 -0.26856,-3.44238 0,-1.00911 0.0326,-1.85546 0.0977,-2.53907 0.0651,-0.68358 0.1709,-1.23696 0.31738,-1.66015 0.14648,-0.42317 0.3418,-0.72427 0.58594,-0.90332 0.24414,-0.17902 0.52897,-0.26854 0.85449,-0.26856 0.45573,2e-5 1.09863,0.26857 1.92871,0.80567 0.83007,0.53712 1.89615,1.13119 3.19825,1.78222 1.30207,0.65106 2.85643,1.24513 4.66308,1.78223 1.80663,0.53712 3.8981,0.80567 6.27442,0.80566 1.56247,10e-6 2.96221,-0.18716 4.19921,-0.56152 1.23696,-0.37434 2.28676,-0.90331 3.14942,-1.58691 0.8626,-0.68358 1.52178,-1.52994 1.97754,-2.53907 0.4557,-1.0091 0.68356,-2.13214 0.68359,-3.36914 -3e-5,-1.43227 -0.39065,-2.66111 -1.17187,-3.68652 -0.78128,-1.02537 -1.79853,-1.93683 -3.05176,-2.73437 -1.25328,-0.79751 -2.67743,-1.5462 -4.27246,-2.2461 -1.59507,-0.69984 -3.23895,-1.4404 -4.93164,-2.22168 -1.69273,-0.78122 -3.33661,-1.66826 -4.93164,-2.66113 -1.59507,-0.99281 -3.01922,-2.18096 -4.27246,-3.56445 -1.25327,-1.38343 -2.27052,-3.01917 -3.05176,-4.90723 -0.78126,-1.88798 -1.17188,-4.15035 -1.17188,-6.78711 0,-3.02729 0.56152,-5.68842 1.68457,-7.9834 1.12304,-2.29486 2.63671,-4.19916 4.54102,-5.71289 1.90428,-1.51361 4.15038,-2.64479 6.73828,-3.39355 2.58787,-0.74864 5.33038,-1.12299 8.22754,-1.12305 1.49737,6e-5 2.99476,0.114 4.49219,0.3418 1.49736,0.22792 2.8971,0.53717 4.19922,0.92773 1.30204,0.39069 2.45764,0.83014 3.46679,1.31836 1.00908,0.48834 1.6764,0.89524 2.00196,1.2207 0.32548,0.32558 0.5452,0.60228 0.65918,0.83008 0.11389,0.22793 0.21154,0.52903 0.29296,0.90332 0.0813,0.37441 0.13831,0.84641 0.1709,1.41602 0.0325,0.56972 0.0488,1.27772 0.0488,2.12402 -4e-5,0.94407 -0.0245,1.74159 -0.0732,2.39258 -0.0489,0.65109 -0.13025,1.1882 -0.24414,1.61133 -0.11397,0.42322 -0.27673,0.73247 -0.48828,0.92773 -0.21163,0.19536 -0.49646,0.29302 -0.8545,0.29297 -0.35811,5e-5 -0.92777,-0.22781 -1.70898,-0.68359 -0.78129,-0.45568 -1.74157,-0.9521 -2.88086,-1.48926 -1.13936,-0.53706 -2.45771,-1.02534 -3.95508,-1.46485 -1.49742,-0.43939 -3.1413,-0.65912 -4.93164,-0.65918 -1.39976,6e-5 -2.62046,0.17096 -3.66211,0.5127 -1.04169,0.34185 -1.91245,0.81386 -2.6123,1.41602 -0.69989,0.60226 -1.22072,1.32654 -1.5625,2.17285 -0.34182,0.8464 -0.51271,1.74158 -0.5127,2.68554 -1e-5,1.39979 0.38247,2.61235 1.14746,3.6377 0.76496,1.02543 1.79035,1.93689 3.07618,2.73437 1.28578,0.79757 2.74248,1.54627 4.37011,2.2461 1.62758,0.69991 3.28773,1.44047 4.98047,2.22168 1.69268,0.78128 3.35283,1.66833 4.98047,2.66113 1.62757,0.99287 3.07613,2.18102 4.3457,3.56445 1.26949,1.3835 2.29488,3.0111 3.07617,4.88282 0.78121,1.87177 1.17184,4.07717 1.17188,6.61621 z"
         style="font-size:100px"
         id="path3801" />
    </g>
  </g>
</svg>
