<?xml version="1.0" encoding="UTF-8" standalone="no"?>
<!-- Created with Inkscape (http://www.inkscape.org/) -->

<svg
   xmlns:dc="http://purl.org/dc/elements/1.1/"
   xmlns:cc="http://creativecommons.org/ns#"
   xmlns:rdf="http://www.w3.org/1999/02/22-rdf-syntax-ns#"
   xmlns:svg="http://www.w3.org/2000/svg"
   xmlns="http://www.w3.org/2000/svg"
   xmlns:sodipodi="http://sodipodi.sourceforge.net/DTD/sodipodi-0.dtd"
   xmlns:inkscape="http://www.inkscape.org/namespaces/inkscape"
   width="24"
   height="24"
   id="svg2"
   version="1.1"
   inkscape:version="0.48.4 r9939"
   sodipodi:docname="rivergis.svg">
  <defs
     id="defs4" />
  <sodipodi:namedview
     id="base"
     pagecolor="#ffffff"
     bordercolor="#666666"
     borderopacity="1.0"
     inkscape:pageopacity="0.0"
     inkscape:pageshadow="2"
     inkscape:zoom="22.4"
     inkscape:cx="10.011962"
     inkscape:cy="10.681794"
     inkscape:document-units="px"
     inkscape:current-layer="layer4"
     showgrid="false"
     inkscape:window-width="1600"
     inkscape:window-height="853"
     inkscape:window-x="-4"
     inkscape:window-y="-4"
     inkscape:window-maximized="1"
     gridtolerance="10" />
  <metadata
     id="metadata7">
    <rdf:RDF>
      <cc:Work
         rdf:about="">
        <dc:format>image/svg+xml</dc:format>
        <dc:type
           rdf:resource="http://purl.org/dc/dcmitype/StillImage" />
        <dc:title />
      </cc:Work>
    </rdf:RDF>
  </metadata>
  <g
     inkscape:label="tlo"
     inkscape:groupmode="layer"
     id="layer1"
     style="display:inline"
     transform="translate(0,-1028.3622)">
    <rect
       style="opacity:0.8;fill:#00bc00;fill-opacity:1;stroke:none"
       id="rect3856"
       width="23.92215"
       height="24.061701"
       x="0.044020686"
       y="1028.3344"
       inkscape:export-filename="C:\Users\rpasiok\.qgis2\python\plugins\rivergis\rivergis24.png"
       inkscape:export-xdpi="3.0899999"
       inkscape:export-ydpi="3.0899999" />
  </g>
  <g
     inkscape:groupmode="layer"
     id="layer4"
     inkscape:label="zalew"
     style="display:inline"
     transform="translate(0,-1028.3622)">
    <path
       style="fill:#00a4dd;fill-opacity:1;stroke:none"
       d="m 0.05239414,1036.3384 c 0,0 0.1611766,-0.072 0.18690468,-0.098 0.025725,-0.025 0.0673557,-0.029 0.0976325,-0.049 0.0676978,-0.046 0.13277235,-0.095 0.19528992,-0.1474 0.0707255,-0.059 0.12340202,-0.1386 0.19528986,-0.1964 0.04583,-0.037 0.10064984,-0.061 0.14645396,-0.099 0.0359486,-0.029 0.0650953,-0.065 0.0976325,-0.098 0.0488162,-0.049 0.10816724,-0.09 0.14645294,-0.1472 0.028545,-0.044 0.016735,-0.107 0.048816,-0.1473 0.036654,-0.046 0.1098003,-0.052 0.1464726,-0.098 0.032143,-0.04 0.029707,-0.099 0.048816,-0.1475 0.027031,-0.067 0.070611,-0.1285 0.097633,-0.1963 0.019099,-0.048 0.029707,-0.1001 0.048816,-0.1473 0.088498,-0.2225 0.00456,-0.01 0.097633,-0.1473 0.030868,-0.047 0.066775,-0.1499 0.097633,-0.1964 0.012795,-0.021 0.032558,-0.033 0.048816,-0.049 0.016341,-0.016 0.029665,-0.036 0.048816,-0.049 0.030277,-0.02 0.071908,-0.024 0.097633,-0.049 0.025725,-0.025 0.019701,-0.077 0.048816,-0.098 0.041185,-0.031 0.099447,-0.029 0.1464726,-0.049 0.2047348,-0.091 0.5528752,-0.2725 0.7323102,-0.3929 0.038302,-0.025 0.0627,-0.067 0.097633,-0.098 0.079114,-0.067 0.1704287,-0.1223 0.2441041,-0.1963 0.025725,-0.026 0.030764,-0.066 0.048816,-0.098 0.048816,-0.082 0.097633,-0.1637 0.1464529,-0.2456 0.016341,-0.015 0.036063,-0.03 0.048816,-0.049 0.085314,-0.1288 0.018311,-0.086 0.097633,-0.2456 0.1117102,-0.2247 -0.02024,0.2084 0.097633,-0.1473 0.1981662,-0.598 -0.019804,0.051 0.048816,-0.2947 0.010058,-0.051 0.032558,-0.098 0.048816,-0.1472 0.016341,-0.049 0.029707,-0.1001 0.048816,-0.1474 0.013583,-0.034 0.037317,-0.063 0.048816,-0.098 0.016341,-0.065 0.032537,-0.131 0.048816,-0.1964 0,-0.033 -0.00788,-0.066 0,-0.098 0.00881,-0.036 0.032558,-0.065 0.048816,-0.098 0.016341,-0.033 0.032537,-0.065 0.048816,-0.099 0.016341,-0.033 0.037297,-0.063 0.048816,-0.098 0.00508,-0.016 -0.00726,-0.035 0,-0.049 0.020592,-0.041 0.077061,-0.057 0.097633,-0.098 0.00726,-0.014 -0.011416,-0.037 0,-0.049 0.011416,-0.012 0.034269,0.01 0.048816,0 0.020592,-0.01 0.028224,-0.039 0.048816,-0.049 0.014765,-0.01 0.1244659,0 0.1464736,0 0.04134,0 0.169031,-0.01 0.19529,0 0.021826,0.01 0.029665,0.036 0.048816,0.049 0.060554,0.04 0.1301936,0.065 0.195291,0.098 0.065095,0.033 0.1262369,0.076 0.1952899,0.098 0.029115,0.01 0.2456241,0 0.2929245,0 0.2278303,0 0.4556595,0 0.6834898,0 0.062327,0 0.2999846,-0.01 0.341746,0 0.044669,0.011 0.052995,0.087 0.097633,0.099 0.047365,0.011 0.099094,-0.011 0.1464529,0 0.044648,0.011 0.05397,0.084 0.097632,0.098 0.030889,0.01 0.068517,-0.014 0.097633,0 0.041164,0.021 0.060823,0.069 0.097632,0.098 0.058231,0.045 0.1438151,0.047 0.19529,0.099 0.025725,0.025 0.016341,0.082 0.048816,0.098 0.043663,0.022 0.1027962,-0.023 0.1464529,0 0.032537,0.016 0.023091,0.072 0.048816,0.099 0.05146,0.052 0.1384617,0.053 0.1952909,0.098 0.053918,0.044 0.087264,0.1116 0.146453,0.1472 0.027913,0.016 0.067418,-0.011 0.097633,0 0.2878096,0.116 0.057049,0.055 0.1952899,0.1475 0.030277,0.02 0.067356,0.029 0.097632,0.049 0.019099,0.011 0.029665,0.036 0.048816,0.049 0.030277,0.02 0.067366,0.029 0.097632,0.049 0.019099,0.011 0.028224,0.039 0.048816,0.049 0.014568,0.01 0.034269,-0.01 0.048816,0 0.041164,0.021 0.056479,0.078 0.097632,0.098 0.014568,0.01 0.032537,0 0.048816,0 0.032537,0.016 0.067356,0.029 0.097632,0.049 0.038302,0.025 0.059351,0.072 0.097632,0.099 0.030277,0.02 0.068538,0.028 0.097632,0.049 0.03683,0.028 0.065095,0.065 0.097633,0.098 0.032558,0.033 0.072105,0.059 0.097632,0.098 0.00902,0.013 -0.011416,0.037 0,0.049 0.025725,0.025 0.075806,0.02 0.097633,0.049 0.030889,0.042 0.017917,0.106 0.048816,0.1474 0.021826,0.03 0.071908,0.024 0.097632,0.049 0.049407,0.05 0.069035,0.1976 0.097632,0.2454 0.047365,0.08 0.1377722,0.1243 0.19529,0.1965 0.036654,0.046 0.060979,0.1022 0.097633,0.1473 0.028763,0.036 0.07002,0.061 0.097632,0.099 0.021826,0.03 0.019701,0.077 0.048816,0.098 0.041185,0.031 0.100432,0.026 0.1464726,0.049 0.020592,0.01 0.028224,0.039 0.048816,0.049 0.014568,0.01 0.033035,0 0.048816,0 0.4063601,0.1021 -0.058936,0 0.2441041,0.098 0.03163,0.01 0.204133,0 0.244102,0 0.04882,0 0.102796,0.022 0.146453,0 0.04116,-0.022 0.06509,-0.065 0.09763,-0.098 0.01634,-0.016 0.03852,-0.029 0.04882,-0.049 0.02301,-0.047 0.01792,-0.1059 0.04882,-0.1472 0.02183,-0.03 0.07746,-0.018 0.09763,-0.049 0.0181,-0.028 -0.0079,-0.066 0,-0.098 0.0088,-0.036 0.02864,-0.067 0.04882,-0.098 0.0128,-0.02 0.03606,-0.03 0.04882,-0.049 0.04038,-0.061 0.05727,-0.1354 0.09763,-0.1964 0.0128,-0.02 0.03606,-0.03 0.04882,-0.049 0.02018,-0.031 0.02864,-0.068 0.04882,-0.098 0.0128,-0.021 0.04154,-0.027 0.04882,-0.049 0.01027,-0.031 -0.01457,-0.068 0,-0.098 0.0073,-0.014 0.03427,0.01 0.04882,0 0.04116,-0.021 0.05648,-0.078 0.09763,-0.098 0.01457,-0.01 0.03427,0.01 0.04882,0 0.02059,-0.01 0.02822,-0.039 0.04882,-0.049 0.01457,-0.01 0.03732,0.011 0.04882,0 0.01142,-0.011 -0.01457,-0.041 0,-0.049 0.05823,-0.03 0.133521,0.021 0.195291,0 0.02183,-0.01 0.02822,-0.039 0.04882,-0.049 0.01457,-0.01 0.03339,0.01 0.04882,0 0.03453,-0.011 0.06313,-0.037 0.09763,-0.049 0.04632,-0.015 0.09909,0.011 0.146453,0 0.118088,-0.03 0.11293,-0.092 0.195291,-0.1474 0.353977,-0.178 -0.07721,0.052 0.146453,-0.099 0.03028,-0.02 0.06509,-0.033 0.09763,-0.049 0.03256,-0.016 0.06312,-0.037 0.09763,-0.049 0.01536,-0.01 0.03339,0.01 0.04882,0 0.03453,-0.011 0.06312,-0.037 0.09763,-0.049 0.01536,-0.01 0.03339,0.01 0.04882,0 0.353628,-0.1186 -0.07697,0.014 0.146452,-0.098 0.01457,-0.01 0.03256,0 0.04882,0 0.04882,0 0.09763,0 0.146453,0 0.06509,0 0.130193,0 0.195291,0 0.09763,0 0.19529,0 0.292923,0 0.06509,0 0.131079,-0.01 0.195291,0 0.03591,0.01 0.06312,0.037 0.09763,0.049 0.01536,0.01 0.03527,-0.01 0.04882,0 0.0383,0.026 0.05935,0.073 0.09763,0.098 0.01358,0.01 0.03339,-0.01 0.04882,0 0.03453,0.012 0.06643,0.031 0.09763,0.049 0.05031,0.031 0.09397,0.072 0.146453,0.098 0.01457,0.01 0.03256,0 0.04882,0 0.03254,0.015 0.06643,0.031 0.09763,0.049 0.05031,0.031 0.09397,0.073 0.146453,0.098 0.02911,0.014 0.06677,-0.01 0.09763,0 0.03453,0.011 0.06311,0.037 0.09763,0.049 0.01536,0.01 0.03427,-0.01 0.04882,0 0.02059,0.01 0.02699,0.042 0.04882,0.049 0.03089,0.01 0.0651,0 0.09763,0 0.01634,0 0.03427,-0.01 0.04882,0 0.02059,0.01 0.02822,0.039 0.04882,0.049 0.01457,0.01 0.03339,-0.01 0.04882,0 0.03453,0.011 0.06234,0.04 0.09763,0.049 0.03157,0.01 0.06509,0 0.09763,0 0.01634,0 0.03427,-0.01 0.04882,0 0.230542,0.1161 -0.297984,-0.026 0.19529,0.098 0.06106,0.015 0.135508,-0.021 0.195291,0 0.02183,0.01 0.02822,0.039 0.04882,0.049 0.01457,0.01 0.03427,-0.01 0.04882,0 0.02059,0.01 0.02822,0.039 0.04882,0.049 0.01457,0.01 0.03254,0 0.04882,0 0.01634,0 0.03254,0 0.04882,0 0.04378,0 0.367349,-0.01 0.390566,0 0.02183,0.01 0.02822,0.039 0.04882,0.049 0.03069,0.015 0.164601,-0.016 0.19529,0 0.161925,0.1628 -0.04603,-0.024 0.09763,0.049 0.02059,0.01 0.02699,0.041 0.04882,0.049 0.03089,0.01 0.0651,0 0.09763,0 0.01634,0 0.03427,-0.01 0.04882,0 0.02059,0.01 0.03254,0.033 0.04882,0.049 0.03254,0 0.06677,-0.01 0.09763,0 0.02183,0.01 0.02822,0.039 0.04882,0.049 0.01457,0.01 0.03254,0 0.04882,0 0.03254,0 0.06677,-0.01 0.09763,0 0.02183,0.01 0.02967,0.036 0.04882,0.049 0.03028,0.02 0.06312,0.037 0.09763,0.049 0.145331,0.049 -0.100173,-0.1163 0.146453,0.049 0.0191,0.011 0.02699,0.041 0.04882,0.049 0.03089,0.01 0.0651,0 0.09763,0 0.01634,0 0.03427,-0.01 0.04882,0 0.02059,0.01 0.02967,0.036 0.04882,0.049 0.03028,0.021 0.06509,0.033 0.09763,0.049 0.03256,0.015 0.06313,0.037 0.09763,0.049 0.01536,0.01 0.03254,0 0.04882,0 0.03254,0 0.06677,-0.01 0.09763,0 0.02183,0.01 0.02699,0.041 0.04882,0.049 0.06175,0.021 0.13352,-0.022 0.19529,0 0.18098,0.06 -0.05951,0.049 0.09763,0.049 0.276651,0 0.553302,0 0.829952,0 0.08138,0 0.162732,0 0.244105,0 0.03254,0 0.06676,0.01 0.09763,0 0.03453,-0.011 0.06312,-0.037 0.09763,-0.049 0.01536,-0.01 0.03427,0.01 0.04882,0 0.02059,-0.01 0.02822,-0.039 0.04882,-0.049 0.01457,-0.01 0.03427,0.01 0.04882,0 0.02059,-0.01 0.02822,-0.039 0.04882,-0.049 0.0128,-0.01 0.169758,0 0.19529,0 0.09763,0 0.195289,0 0.292923,0 0.04882,0 0.09858,-0.01 0.146453,0 0.03569,0.01 0.06312,0.037 0.09763,0.049 0.01536,0.01 0.03339,-0.01 0.04882,0 0.03453,0.011 0.06234,0.04 0.09763,0.049 0.03157,0.01 0.06509,0 0.09763,0 0.09763,0 0.19529,0 0.292925,0 0.01634,0 0.03254,0 0.04882,0 0.01634,0 0.03732,0.011 0.04882,0 0.01142,-0.011 -0.01142,-0.037 0,-0.049 0.01142,-0.011 0.03427,0.01 0.04882,0 0.02059,-0.01 0.02822,-0.039 0.04882,-0.049 0.02912,-0.014 0.07462,0.023 0.09763,0 0.01142,-0.011 -0.01142,-0.037 0,-0.049 0.01142,-0.011 0.03254,0 0.04882,0 0.01634,0 0.03254,0 0.04882,0 0.130194,0 0.260378,0 0.390566,0 0.02301,0 0.241891,0 0.244104,0 0.01142,-0.011 -0.01142,-0.037 0,-0.049 0.02441,-0.024 0.122043,0.024 0.146453,0 0.01142,-0.011 -0.01142,-0.037 0,-0.049 0.02441,-0.024 0.122043,0.025 0.146453,0 0.01142,-0.011 -0.01142,-0.037 0,-0.049 0.02301,-0.024 0.06853,0.013 0.09763,0 0.02059,-0.01 0.02822,-0.039 0.04882,-0.049 0.02912,-0.014 0.07462,0.024 0.09763,0 0.01142,-0.011 -0.01142,-0.037 0,-0.049 3.3e-5,0 0.146236,10e-5 0.146453,0 0.02183,-0.01 0.02822,-0.039 0.04882,-0.049 0.02175,-0.01 0.17787,0 0.195291,0 0.269835,-0.054 0.06086,-0.049 0.19529,-0.049 0.199824,0.032 0.581534,0 0.581534,0 l 0.0013,11.6777 c 0,0 -0.165075,0.01 -0.192318,0.01 -0.03256,0 -0.06676,-0.01 -0.09763,0 -0.02183,0.01 -0.02822,0.039 -0.04882,0.049 -0.01457,0.01 -0.03339,-0.01 -0.04882,0 -0.03453,0.011 -0.06234,0.04 -0.09763,0.049 -0.04034,0.01 -0.340605,0 -0.390566,0 -0.195291,0 -0.390565,0 -0.58585,0 -0.05219,0 -0.288874,-0.01 -0.341743,0 -0.05047,0.01 -0.096,0.039 -0.146452,0.049 -0.0319,0.01 -0.06677,-0.01 -0.09763,0 -0.02183,0.01 -0.02822,0.039 -0.04882,0.049 -0.03069,0.015 -0.164603,-0.016 -0.195291,0 -0.02059,0.01 -0.02699,0.041 -0.04882,0.049 -0.03089,0.01 -0.06677,-0.01 -0.09763,0 -0.0061,0 -0.142279,0.1388 -0.146473,0.1473 -0.04923,0.098 -0.03366,0.1597 -0.09763,0.2456 -0.02761,0.037 -0.07395,0.058 -0.09763,0.098 -0.117791,0.059 -0.01161,0.171 -0.04882,0.2455 -0.02059,0.041 -0.07395,0.058 -0.09763,0.098 -9.63e-4,0 -0.09511,0.2884 -0.09763,0.2947 -0.02703,0.067 -0.08,0.1254 -0.09763,0.1963 -0.0079,0.032 0.0063,0.065 0,0.098 -0.03004,0.1512 -0.116415,0.2908 -0.146453,0.4419 -0.0063,0.032 0.01201,0.067 0,0.098 -0.126178,0.1904 -0.07909,0.091 -0.146453,0.2947 -0.01634,0.049 -0.03872,0.096 -0.04882,0.1473 -0.0063,0.032 0.01457,0.069 0,0.098 -0.02059,0.041 -0.07395,0.058 -0.09763,0.098 -0.02647,0.045 -0.02235,0.1028 -0.04882,0.1474 -0.02368,0.04 -0.07002,0.061 -0.09763,0.098 -0.02183,0.03 -0.03254,0.065 -0.04882,0.099 -0.03254,0.033 -0.07002,0.061 -0.09763,0.098 -0.02183,0.03 -0.02699,0.068 -0.04882,0.098 -0.02761,0.037 -0.06816,0.062 -0.09763,0.098 -0.04882,0.065 -0.09763,0.1309 -0.146453,0.1963 -0.01634,0.033 -0.02699,0.069 -0.04882,0.099 -0.02761,0.037 -0.0689,0.062 -0.09763,0.098 -0.0886,0.057 -0.08952,0.1691 -0.146473,0.2455 -0.211164,0.2125 -0.0077,-0.011 -0.146453,0.1963 -0.04478,0.068 -0.07531,0.051 -0.146472,0.098 -0.0191,0.011 -0.02822,0.039 -0.04882,0.049 -0.01457,0.01 -0.03732,-0.012 -0.04882,0 -0.01142,0.011 0.0073,0.035 0,0.049 -0.05398,0.1085 -0.0303,0.015 -0.09763,0.049 -0.02059,0.01 -0.02699,0.041 -0.04882,0.049 -0.04632,0.015 -0.09763,0 -0.146452,0 -0.08137,0 -0.162732,0 -0.244105,0 -0.09763,0 -0.195291,0 -0.292923,0 -0.03254,0 -0.06509,0 -0.09763,0 -0.03256,0 -0.06606,0.01 -0.09763,0 -0.0353,-0.01 -0.06509,-0.033 -0.09763,-0.049 -0.04882,-0.016 -0.096,-0.039 -0.146452,-0.049 -0.0319,-0.01 -0.0651,0 -0.09763,0 -0.03254,-0.016 -0.06312,-0.037 -0.09763,-0.049 -0.01536,-0.01 -0.03731,0.011 -0.04882,0 -0.01142,-0.012 0.01142,-0.037 0,-0.049 -0.01142,-0.011 -0.03732,0.011 -0.04882,0 -0.02301,-0.024 0.02301,-0.076 0,-0.098 -0.02573,-0.025 -0.07191,-0.023 -0.09763,-0.049 -0.01142,-0.011 0.0051,-0.034 0,-0.049 -0.01142,-0.035 -0.02699,-0.068 -0.04882,-0.098 -0.02761,-0.037 -0.0721,-0.059 -0.09763,-0.099 -0.009,-0.013 0,-0.033 0,-0.049 -0.03256,-0.049 -0.06244,-0.099 -0.09763,-0.1473 -0.01378,-0.018 -0.03254,-0.033 -0.04882,-0.049 -0.01634,-0.033 -0.02864,-0.067 -0.04882,-0.098 -0.02553,-0.038 -0.07211,-0.059 -0.09763,-0.099 -0.02018,-0.031 -0.02864,-0.067 -0.04882,-0.098 -0.02553,-0.038 -0.07706,-0.056 -0.09763,-0.099 -0.0073,-0.013 0.0073,-0.035 0,-0.049 -0.01027,-0.021 -0.03606,-0.03 -0.04882,-0.049 -0.02018,-0.031 -0.02309,-0.072 -0.04882,-0.098 -0.01142,-0.011 -0.03732,0.011 -0.04882,0 -0.0415,-0.041 -0.06244,-0.099 -0.09763,-0.1472 -0.01378,-0.018 -0.03606,-0.03 -0.04882,-0.049 -0.0202,-0.031 -0.02864,-0.067 -0.04882,-0.099 -0.02553,-0.038 -0.07211,-0.059 -0.09763,-0.098 -0.02018,-0.031 -0.02309,-0.072 -0.04882,-0.098 -0.01142,-0.011 -0.03732,0.011 -0.04882,0 -0.01142,-0.011 0.0073,-0.035 0,-0.049 -0.01027,-0.022 -0.03256,-0.033 -0.04882,-0.049 -0.01634,-0.015 -0.02822,-0.039 -0.04882,-0.049 -0.01457,-0.01 -0.03732,0.012 -0.04882,0 -0.01142,-0.011 0.01142,-0.037 0,-0.049 -0.01142,-0.011 -0.03254,0 -0.04882,0 -0.01634,0 -0.03254,0 -0.04882,0 -0.01181,0 -0.144897,-0 -0.146472,0 -0.01142,0.012 0.01142,0.037 0,0.049 -0.02572,0.026 -0.07191,0.024 -0.09763,0.049 -0.02572,0.026 -0.02864,0.067 -0.04882,0.098 -0.08096,0.122 -0.01122,0.01 -0.09763,0.049 -0.120665,0.06 0.01693,0.049 -0.09763,0.049 -0.130194,0 0.01634,-0.016 -0.04882,0.049 -0.01142,0.011 -0.03254,0 -0.04882,0 -0.02724,0 -0.221756,-0.01 -0.244104,0 -0.02183,0.01 -0.02699,0.041 -0.04882,0.049 -0.04632,0.015 -0.09763,0 -0.146453,0 -0.08137,0 -0.162732,0 -0.244104,0 -0.01634,0 -0.03254,0 -0.04882,0 -0.01634,0 -0.03732,-0.011 -0.04882,0 -0.01142,0.011 0.01457,0.041 0,0.049 -0.03906,0.02 -0.107398,-0.021 -0.146472,0 -0.02059,0.01 -0.02822,0.039 -0.04882,0.049 -0.01457,0.01 -0.03732,-0.011 -0.04882,0 -0.01142,0.011 0.01142,0.037 0,0.049 -0.01142,0.011 -0.03732,-0.011 -0.04882,0 -0.01142,0.011 0.01142,0.037 0,0.049 -0.01142,0.011 -0.03732,-0.011 -0.04882,0 -0.02301,0.024 0.01457,0.069 0,0.098 -0.02929,0.059 -0.117163,0.088 -0.146453,0.1473 -0.0073,0.014 0,0.033 0,0.049 -0.01634,0.033 -0.02864,0.067 -0.04882,0.098 -0.0128,0.02 -0.03256,0.033 -0.04882,0.049 -0.01634,0.016 -0.02966,0.036 -0.04882,0.049 -0.03028,0.02 -0.07191,0.024 -0.09763,0.049 -0.01142,0.011 0.01142,0.037 0,0.049 -0.123325,0.1241 -0.05628,0.018 -0.146453,0.049 -0.03453,0.011 -0.06313,0.037 -0.09763,0.049 -0.01536,0.01 -0.03303,0 -0.04882,0 -0.04993,0.011 -0.09653,0.037 -0.146453,0.049 -0.04178,0.01 -0.195311,0 -0.244105,0 -0.03254,0 -0.0651,0 -0.09763,0 -0.04882,0 -0.101137,0.018 -0.146453,0 -0.04274,-0.018 -0.05648,-0.078 -0.09763,-0.098 -0.02912,-0.013 -0.06742,0.011 -0.09763,0 -0.05449,-0.023 -0.09616,-0.067 -0.146453,-0.098 -0.0312,-0.018 -0.06853,-0.027 -0.09763,-0.049 -0.03683,-0.028 -0.06082,-0.071 -0.09763,-0.098 -0.02911,-0.023 -0.07191,-0.024 -0.09763,-0.049 -0.0415,-0.041 -0.06098,-0.1022 -0.09763,-0.1472 -0.10478,-0.1318 -0.103128,-0.083 -0.244104,-0.1965 -0.07189,-0.058 -0.116335,-0.1487 -0.19529,-0.1963 -0.04413,-0.027 -0.09868,-0.03 -0.146453,-0.049 -0.03378,-0.014 -0.06312,-0.037 -0.09763,-0.049 -0.03164,-0.01 -0.204135,0 -0.244104,0 -0.162732,0 -0.325472,0 -0.488208,0 -0.0651,0 -0.131454,0.011 -0.195291,0 -0.05045,-0.01 -0.09699,-0.035 -0.146453,-0.049 -0.06452,-0.018 -0.130764,-0.031 -0.19529,-0.049 -0.09896,-0.029 -0.195291,-0.065 -0.292924,-0.098 -0.04882,-0.016 -0.09763,-0.033 -0.1464728,-0.049 -0.048816,-0.015 -0.095704,-0.04 -0.1464533,-0.049 -0.048153,-0.01 -0.098597,0.01 -0.1464727,0 -0.071358,-0.014 -0.1246815,-0.081 -0.1952899,-0.098 -0.031573,-0.01 -0.065095,0 -0.097632,0 -0.032537,-0.016 -0.063125,-0.037 -0.097633,-0.049 -0.030889,-0.01 -0.065095,0 -0.097632,0 -0.1139136,0 -0.2278303,0 -0.3417449,0 -0.3091996,0 -0.6183958,0 -0.9275931,0 -0.081374,0 -0.1627319,0 -0.2441041,0 -0.032537,0 -0.066765,0.01 -0.097633,0 -0.021826,-0.01 -0.028245,-0.039 -0.048816,-0.049 -0.048816,-0.016 -0.097633,-0.033 -0.1464529,-0.049 -0.016341,0 -0.033387,0.01 -0.048816,0 -0.034528,-0.011 -0.063125,-0.037 -0.097632,-0.049 -0.1113556,-0.037 0.032278,0.06 -0.1464529,0 -0.021826,-0.01 -0.029665,-0.036 -0.048816,-0.049 -0.030277,-0.02 -0.063125,-0.037 -0.097633,-0.049 -0.041828,-0.014 -0.15222,0.01 -0.1952899,0 -0.076439,-0.021 -0.2205846,-0.1328 -0.2929235,-0.1474 -0.047873,-0.01 -0.098307,0.01 -0.1464529,0 -0.4285586,-0.072 0.074624,-0.018 -0.2441041,-0.098 -0.033035,-0.01 -0.3103295,0 -0.3417459,0 -0.2603769,0 -0.5207548,0 -0.7811317,0 -0.030609,0 -0.189248,-0.01 -0.195291,0 -0.011416,0.011 0.011416,0.037 0,0.049 -0.023008,0.024 -0.068517,-0.014 -0.097633,0 -0.2031805,0.1022 0.052186,0 -0.048816,0.098 -0.025725,0.025 -0.067356,0.029 -0.097633,0.049 -0.019089,0.011 -0.028224,0.039 -0.048816,0.049 -0.029116,0.014 -0.066765,-0.01 -0.097632,0 -0.059942,0.02 -0.1353511,0.079 -0.1952899,0.098 -0.015356,0.01 -0.033388,-0.01 -0.048816,0 -0.069035,0.024 -0.1246826,0.081 -0.195291,0.098 -0.063146,0.016 -0.1321419,-0.016 -0.1952899,0 -0.3187324,0.081 0.1844442,0.026 -0.2441041,0.098 -0.048153,0.01 -0.097633,0 -0.1464736,0 -0.097633,0 -0.1952899,0 -0.2929235,0 -0.1301936,0 -0.2603769,0 -0.3905653,0 -0.048816,0 -0.098576,0.01 -0.1464726,0 -0.035689,-0.01 -0.061964,-0.042 -0.097633,-0.049 -0.019887,0 -0.2745293,0.01 -0.2929245,0 -0.1240315,-0.062 0.049998,-0.058 -0.1464727,-0.098 -0.2282699,-0.046 -0.068164,0.063 -0.2929234,-0.049 -0.2456864,-0.1236 -0.052694,-0.1115 -0.3905674,-0.1963 -0.047365,-0.011 -0.1001522,0.015 -0.1464529,0 -0.05567,-0.018 -0.093972,-0.073 -0.14645302,-0.098 -0.078388,-0.039 -0.16572435,-0.058 -0.2441041,-0.098 -0.0524764,-0.027 -0.0908098,-0.08 -0.14645287,-0.098 -0.0463174,-0.015 -0.0983065,0.01 -0.14645292,0 -0.0904884,-0.015 -0.16442514,-0.058 -0.2441041,-0.098 -0.0325373,-0.016 -0.0631045,-0.037 -0.09763251,-0.049 -0.01535618,-0.01 -0.04881626,0 -0.04881626,0 z"
       id="path3877"
       inkscape:connector-curvature="0"
       sodipodi:nodetypes="cssssssssssssssssssssssccssssssccssscsscssssssssssssssssssssssssssssccsssssssssssssssscsssssssssssssssssssssscssscssccssssssssssccsscssscscssscsssssssssscscsssscssssssssssssssssssssscsssssssssssssssssccsssccsccssssccsscccssscsssssssssccscsccssscssssssccsccsccsssccssssssscsccsccssssccscssssscscscsssccsssssscssssssssssssccsccccscsscsssscscsssssssssssssssssssssssssscsssssscccssssssssssccssssssssssssssscsssssssssccc"
       inkscape:export-filename="C:\Users\rpasiok\.qgis2\python\plugins\rivergis\rivergis24.png"
       inkscape:export-xdpi="3.0899999"
       inkscape:export-ydpi="3.0899999" />
  </g>
  <g
     inkscape:groupmode="layer"
     id="layer2"
     inkscape:label="river"
     style="display:inline"
     transform="translate(0,-1028.3622)">
    <path
       style="fill:none;stroke:#0000ff;stroke-width:0.99999994;stroke-linecap:butt;stroke-linejoin:miter;stroke-miterlimit:4;stroke-opacity:1;stroke-dasharray:none;display:inline"
       d="m 0.53547532,1041.9881 c 1.63857218,-1.7664 4.11330018,-3.2268 6.72705898,-3.1873 2.6137591,0.039 7.6430507,3.4083 10.2347877,3.4238 2.591737,0.016 4.535316,-1.294 5.981568,-2.5415"
       id="path2987"
       inkscape:connector-curvature="0"
       sodipodi:nodetypes="czzc"
       inkscape:export-filename="C:\Users\rpasiok\.qgis2\python\plugins\rivergis\rivergis24.png"
       inkscape:export-xdpi="3.0899999"
       inkscape:export-ydpi="3.0899999" />
  </g>
  <g
     inkscape:groupmode="layer"
     id="layer3"
     inkscape:label="xs"
     style="display:inline"
     transform="translate(0,-1028.3622)">
    <path
       style="fill:none;stroke:#000000;stroke-width:0.99999994;stroke-linecap:butt;stroke-linejoin:miter;stroke-miterlimit:4;stroke-opacity:1;stroke-dasharray:none"
       d="m 0.56817336,1031.491 4.04942954,17.4097"
       id="path3782"
       inkscape:connector-curvature="0"
       sodipodi:nodetypes="cc"
       inkscape:export-filename="C:\Users\rpasiok\.qgis2\python\plugins\rivergis\rivergis24.png"
       inkscape:export-xdpi="3.0899999"
       inkscape:export-ydpi="3.0899999" />
    <path
       style="fill:none;stroke:#000000;stroke-width:1;stroke-linecap:butt;stroke-linejoin:miter;stroke-miterlimit:4;stroke-opacity:1;stroke-dasharray:none;display:inline"
       d="m 7.3808427,1030.0416 -0.1321617,19.434"
       id="path3782-1"
       inkscape:connector-curvature="0"
       sodipodi:nodetypes="cc"
       inkscape:export-filename="C:\Users\rpasiok\.qgis2\python\plugins\rivergis\rivergis24.png"
       inkscape:export-xdpi="3.0899999"
       inkscape:export-ydpi="3.0899999" />
    <path
       style="fill:none;stroke:#000000;stroke-width:1;stroke-linecap:butt;stroke-linejoin:miter;stroke-miterlimit:4;stroke-opacity:1;stroke-dasharray:none;display:inline"
       d="M 14.861591,1030.2317 9.2697096,1050.564"
       id="path3782-1-7"
       inkscape:connector-curvature="0"
       sodipodi:nodetypes="cc"
       inkscape:export-filename="C:\Users\rpasiok\.qgis2\python\plugins\rivergis\rivergis24.png"
       inkscape:export-xdpi="3.0899999"
       inkscape:export-ydpi="3.0899999" />
    <path
       style="fill:none;stroke:#000000;stroke-width:1;stroke-linecap:butt;stroke-linejoin:miter;stroke-miterlimit:4;stroke-opacity:1;stroke-dasharray:none;display:inline"
       d="m 17.495632,1030.3692 -0.909404,21.3863"
       id="path3782-1-4"
       inkscape:connector-curvature="0"
       sodipodi:nodetypes="cc"
       inkscape:export-filename="C:\Users\rpasiok\.qgis2\python\plugins\rivergis\rivergis24.png"
       inkscape:export-xdpi="3.0899999"
       inkscape:export-ydpi="3.0899999" />
    <path
       style="fill:none;stroke:#000000;stroke-width:0.99999994;stroke-linecap:butt;stroke-linejoin:miter;stroke-miterlimit:4;stroke-opacity:1;stroke-dasharray:none;display:inline"
       d="m 18.663016,1030.4803 4.71203,16.5123"
       id="path3782-0"
       inkscape:connector-curvature="0"
       sodipodi:nodetypes="cc"
       inkscape:export-filename="C:\Users\rpasiok\.qgis2\python\plugins\rivergis\rivergis24.png"
       inkscape:export-xdpi="3.0899999"
       inkscape:export-ydpi="3.0899999" />
  </g>
</svg>
