<?xml version="1.0" encoding="UTF-8" standalone="no"?>
<!-- Generator: Adobe Illustrator 12.0.0, SVG Export Plug-In . SVG Version: 6.00 Build 51448)  -->

<svg
   xmlns:dc="http://purl.org/dc/elements/1.1/"
   xmlns:cc="http://creativecommons.org/ns#"
   xmlns:rdf="http://www.w3.org/1999/02/22-rdf-syntax-ns#"
   xmlns:svg="http://www.w3.org/2000/svg"
   xmlns="http://www.w3.org/2000/svg"
   xmlns:sodipodi="http://sodipodi.sourceforge.net/DTD/sodipodi-0.dtd"
   xmlns:inkscape="http://www.inkscape.org/namespaces/inkscape"
   id="Layer_1"
   space="preserve"
   sodipodi:docname="webSite.svg"
   viewBox="0 0 23.999999 24"
   sodipodi:version="0.32"
   version="1.1"
   inkscape:output_extension="org.inkscape.output.svg.inkscape"
   inkscape:version="0.91 r13725"
   width="24"
   height="24">
  <defs
     id="defs4397" />
  <sodipodi:namedview
     id="base"
     bordercolor="#666666"
     inkscape:pageshadow="2"
     inkscape:window-width="1842"
     pagecolor="#ffffff"
     inkscape:zoom="5.2315316"
     inkscape:window-x="74"
     borderopacity="1.0"
     inkscape:current-layer="Layer_1"
     inkscape:cx="-36.392769"
     inkscape:cy="8.2835395"
     inkscape:window-y="-4"
     inkscape:window-height="1181"
     inkscape:pageopacity="0.0"
     showgrid="false"
     inkscape:window-maximized="1" />
  <path
     inkscape:connector-curvature="0"
     d="m 22.837827,11.379431 c 0,2.808775 0.21728,5.624875 0.479901,8.420049 0.172813,1.839559 -1.532298,1.82927 -2.834933,1.82927 l -11.3090408,0 c -1.654888,0 -2.8229005,-0.598481 -2.6453794,-2.377006 C 6.8689435,15.846233 6.9629355,12.410727 6.8201165,8.9914399 6.7536768,7.3902618 6.6450366,5.7908275 6.5046589,4.1943577 6.4232224,3.268039 6.1752507,2.3122495 6.8293587,1.5170663 7.7270787,0.42613069 10.183428,0.67183533 11.443863,0.58080778 c 1.708773,-0.12346266 3.417544,-0.2470997 5.126142,-0.37073674 1.266887,-0.0917251 1.936341,0.29923999 2.986296,1.09424886 1.146215,0.868075 3.445621,2.4172874 3.765786,3.9419117 0.0933,0.4446749 -0.16357,1.112559 -0.21885,1.5546181 -0.186589,1.517649 -0.263317,3.0497718 -0.263317,4.5785813"
     style="fill:#ffffff"
     id="path5" />
  <path
     inkscape:connector-curvature="0"
     d="m 8.3117825,0.64532922 c -2.9625806,0 -1.9185538,3.98672798 -1.8004971,5.72165738 0.2584345,3.7999644 0.2737802,7.6020214 -0.016218,11.4005914 -0.1438654,1.890652 -0.5360511,4.022999 2.187277,4.022999 l 4.2978256,0 6.385007,0 c 1.075416,0 3.093019,0.328361 3.810428,-0.68044 0.475715,-0.668582 0.283545,-1.514336 0.219198,-2.268016 C 23.261925,17.289072 23.151018,15.733234 23.076382,14.176 22.938969,11.304621 22.919961,8.3620943 23.463511,5.5266384 23.698753,4.299859 21.439107,2.6618862 20.659619,2.0016746 19.739577,1.2221858 18.443917,-0.08951775 17.139363,0.00482308 14.196488,0.21861576 11.253961,0.4318853 8.3116082,0.6455036 M 6.6159148,19.967061 C 7.1233672,17.373124 7.0501267,14.506978 7.0501267,11.882 7.0501267,8.8739063 6.8633633,5.8513382 6.5433718,2.8598101 6.3229525,0.7972162 8.8956144,0.92992111 10.235045,0.83279018 c 2.055793,-0.14927124 4.111586,-0.29836809 6.167378,-0.44763933 1.57816,-0.11456916 2.382411,0.46228744 3.639882,1.49951325 0.966949,0.7984967 3.308904,2.3841548 3.056747,3.8351898 -0.531866,3.0618042 -0.479028,6.2019061 -0.304994,9.2926571 0.0769,1.36646 0.178392,2.731525 0.296973,4.094846 0.07254,0.834418 0.231754,1.885247 -0.765713,2.244822 -0.746356,0.269072 -1.783757,0.112651 -2.554701,0.112651 l -5.20287,0 -4.8344001,0 c -1.1315667,0 -3.1170834,0.108118 -3.1170834,-1.497943"
     style="fill:#a8a8a8"
     id="path7" />
  <path
     inkscape:connector-curvature="0"
     d="m 21.688648,11.490862 c 0,2.528193 0.561511,5.159273 0.422703,7.668112 0,1.894663 -2.286152,1.484691 -3.56263,1.484691 l -6.394075,0 c -1.152144,0 -3.5528658,0.393754 -4.2238888,-0.838256 -0.3388248,-0.620976 -0.061557,-1.587228 -0.00994,-2.242382 0.1470043,-1.871122 0.2205937,-3.748871 0.2205937,-5.626096 0,-1.833106 -0.077949,-3.6665617 -0.1923438,-5.4960064 C 7.89187,5.5187911 7.6151253,4.4037908 7.7909026,3.4816573 8.1445499,1.6243114 10.932575,1.9406408 12.343327,1.8306056 c 1.036703,-0.081262 2.07358,-0.1621755 3.110282,-0.2429145 0.306216,-0.024239 1.423309,-0.3034252 1.693775,-0.1325305 0.291916,0 0.467694,2.8195873 0.572498,3.1442872 0.436828,1.353904 1.620011,1.1059324 2.819936,1.1638273 0.715142,0.034702 1.639368,-0.124509 1.499164,0.7447868 -0.266804,1.6444249 -0.350508,3.3212849 -0.350508,4.9838451"
     style="fill:#f4f2f2"
     id="path9" />
  <path
     inkscape:connector-curvature="0"
     d="m 16.489789,21.464656 c -0.56029,0 -2.225292,-0.30203 -2.645205,0.0293 0.44607,0 2.387817,0.275524 2.645205,-0.02964"
     style="fill:#828282"
     id="path15" />
  <path
     inkscape:connector-curvature="0"
     d="m 15.205289,17.231177 c -0.307959,0.09783 -0.474669,0.297322 -0.687415,0.539888 -0.176475,0.201237 -0.06609,1.216665 0.261748,1.104538 0.396545,-0.130787 0.429853,-1.328793 0.425667,-1.643902"
     style="fill:#f4f2f2"
     id="path21" />
  <path
     inkscape:connector-curvature="0"
     d="m 15.151579,17.239199 c -0.01412,0.21048 -0.130612,1.140635 -0.410669,1.232534 -0.176301,-0.127997 -0.293835,-0.301507 -0.35173,-0.519485 -0.0715,0.142296 0.178219,0.995549 0.390442,0.923005 0.374921,-0.123811 0.427585,-1.648784 0.371957,-1.635879"
     style="fill:#e2e0e0"
     id="path23" />
  <path
     inkscape:connector-curvature="0"
     d="m 14.153067,16.16605 c -0.503094,1.183184 -0.47589,-0.402299 -1.263225,0.01291 -0.406137,0.159386 -0.649052,1.657329 -0.8046,1.620535 -0.17665,-0.0422 -0.133055,-0.870516 -0.349463,-0.807914 -0.403171,0.117185 0.141599,2.346314 0.614175,2.455652 1.317283,0.30482 1.202365,-1.149179 1.851416,-1.848103 0.317551,-0.341615 -0.274478,-0.68602 -0.190251,-1.04054 0.08684,-0.36411 1.550607,-0.755075 1.170454,-1.279268 -0.3315,0.31197 -0.811924,0.453743 -1.028506,0.887257 m 2.132346,-2.380667 c -0.0061,0.02895 -0.0015,0.0082 0,0"
     style="fill:#f4f2f2"
     id="path25" />
  <g
     id="g27"
     transform="matrix(0.17438228,0,0,0.17438228,0.57444053,-5.957452e-5)">
    <radialGradient
       r="1.5188"
       gradientTransform="matrix(138.25,0,0,-138.25,33899,64173)"
       cx="-244.84"
       cy="464.54999"
       gradientUnits="userSpaceOnUse"
       id="XMLID_3_">
      <stop
         offset="0"
         style="stop-color:#8BBBFF"
         id="stop30" />
      <stop
         offset="1"
         style="stop-color:#0D56AC"
         id="stop32" />
    </radialGradient>
    <path
       inkscape:connector-curvature="0"
       d="m 2.558,90.254 c 0,-24.432 20.398,-44.831 44.831,-44.831 24.427,0 44.829,20.404 44.829,44.831 0.004,24.422 -20.41,44.828 -44.829,44.828 -24.428,0 -44.831,-20.4 -44.831,-44.826 M 47.389,42.868 C 21.596,42.868 0,64.464 0,90.256 c 0,25.793 21.598,47.373 47.389,47.373 25.79,0 47.372,-21.582 47.372,-47.373 0,-25.792 -21.578,-47.391 -47.372,-47.391"
       style="fill:url(#XMLID_3_)"
       id="path34" />
    <radialGradient
       r="61.532001"
       cx="37.987"
       cy="75.791"
       gradientUnits="userSpaceOnUse"
       id="XMLID_4_">
      <stop
         offset="0"
         style="stop-color:#BACFFF"
         id="stop37" />
      <stop
         offset="1"
         style="stop-color:#027ABB"
         id="stop39" />
    </radialGradient>
    <path
       inkscape:connector-curvature="0"
       d="m 92.218,90.254 c 0,24.422 -20.408,44.828 -44.829,44.828 -24.427,0 -44.831,-20.4 -44.831,-44.828 0,-24.432 20.398,-44.831 44.831,-44.831 24.426,0.002 44.829,20.406 44.829,44.833"
       style="fill:url(#XMLID_4_)"
       id="path41" />
    <path
       inkscape:connector-curvature="0"
       d="m 47.389,46.927 c -22.931,0 -42.378,18.646 -43.292,41.569 3.528,0.623 3.594,-7.58 4.673,-10.479 1.92,-5.158 4.889,-9.915 8.67,-13.917 7.739,-8.191 18.679,-12.907 29.949,-12.907 21.955,0 40.496,17.98 41.157,39.928 C 95.848,84.631 84.324,66.37 79.122,60.769 70.976,51.996 59.363,46.927 47.389,46.927"
       style="fill:#c1f0fe"
       id="path43" />
    <path
       inkscape:connector-curvature="0"
       d="m 47.921,133.56 c -0.71,0.01 -0.71,0.01 0,0 m -1.069,0 c 0.715,0.01 0.715,0.01 0,0 M 90.688,89.281 c -3.738,3.084 -2.529,10.832 -4.062,15.635 -1.655,5.191 -4.358,10.033 -7.895,14.178 -7.659,8.98 -19.009,14.318 -30.81,14.471 23.771,-0.29 43.303,-20.52 42.767,-44.289 M 6.391,88.333 c -2.98,0.645 -2.448,0.584 -2.278,4.063 0.169,3.479 0.757,6.936 1.754,10.275 1.738,5.813 4.715,11.232 8.674,15.826 8.063,9.359 19.955,14.914 32.311,15.063 C 23.032,133.25 4.087,112.01 6.391,88.328"
       style="fill:#c3ebfc"
       id="path45" />
    <path
       inkscape:connector-curvature="0"
       d="m 78.531,80.023 c 0,2.426 4.384,10.449 7.188,8.945 3.26,-1.748 6.857,-4.113 5.248,-7.633 C 87.943,74.73 86.649,67.973 82.019,62.09 79.37,58.724 71.576,50.859 66.83,50.7 c -1.288,-0.043 -2.082,1.254 -2.723,2.146 -2.764,3.848 -1.118,2.726 0.837,5.227 1.302,1.665 0.739,4.481 -1.697,3.725 -1.038,-0.321 -2.123,-2.402 -3.004,-3.106 -9.045,-7.212 -1.063,5.127 -2.384,7.015 -0.86,1.23 -6.248,3.503 -3.912,5.319 1.468,1.137 3.452,1.383 5.211,1.703 -5.31,2.555 -8.87,5.223 -9.364,11.084 -0.677,8.047 2.537,9.439 10.014,9.115 11.856,-0.516 -1.493,26.412 11.911,25.145 3.238,-0.307 9.682,-10.697 8.43,-13.67 -1.298,-3.076 -2.106,-3.857 1.164,-5.922 1.234,-0.777 5.937,-3.16 4.443,-5.35 -1.155,-1.689 -3.748,-2.355 -5.179,-3.869 -1.95,-2.061 -2.468,-4.771 -3.01,-7.441 -1.583,-7.77 -7.283,-3.662 -11.231,-7.877 3.922,0.61 12.195,0.327 12.195,6.082"
       style="fill:#65beef"
       id="path47" />
    <path
       inkscape:connector-curvature="0"
       d="m 85.101,103.73 c -1.827,0.584 -2.814,1.766 -4.08,3.207 -1.046,1.191 -0.396,7.217 1.555,6.557 2.355,-0.8 2.55,-7.9 2.525,-9.77"
       style="fill:#65beef"
       id="path49" />
    <path
       inkscape:connector-curvature="0"
       d="m 28.91,53.752 c 0.188,-0.689 0,-1.599 0,-2.32 -4.506,-1.278 -11.854,6.893 -14.506,9.793 -4.118,4.501 -7.398,9.771 -9.539,15.488 -0.574,1.531 -3.976,9.768 -0.829,10.57 2.278,0.582 7.674,0.855 9.115,2.738 2.738,3.58 1.367,4.906 1.474,9.377 0.077,3.076 3.419,6.225 5.231,8.5 1.855,2.328 -1.027,13.252 -1.329,16.416 0.011,-0.197 0.11,-0.324 0.296,-0.379 1.327,1.406 2.396,2.932 4.224,4.168 3.214,-6.828 8.426,-10.797 12.854,-16.883 2.341,-3.217 1.307,-7.029 3.235,-10.361 1.033,-1.783 -0.17,-1.832 -1.882,-3.15 C 31.183,93.031 25.88,91.072 18.525,89.119 15.694,88.369 12.686,88.088 11.836,84.805 11.095,81.94 9.678,82.28 6.801,81.44 c 1.042,-2.428 7.696,-6.49 7.991,-2.26 0.292,4.172 3.615,7.439 7.924,7.434 2.622,-0.002 -3.614,-4.408 -4.572,-4.598 -2.322,-0.463 -2.9,-3.979 -2.51,-5.861 0.403,-1.941 4.572,-4.898 5.971,-6.445 2.496,-2.76 5.255,0.339 7.968,-1.971 -3.476,-0.341 -7.347,-4.171 -1.818,-3.417 1.331,0.18 0.595,2.681 2.864,2.619 C 36.38,66.78 26.846,62.98 27.965,64.442 27.242,63.498 31.645,62.7 29.708,60.085 28.32,58.203 23.744,54.293 28.91,53.741"
       style="fill:#65beef"
       id="path51" />
    <path
       inkscape:connector-curvature="0"
       d="m 34.167,47.362 c -3.118,0.933 0.129,9.225 3.3,8.519 1.61,-0.358 2.698,-3.905 4.147,-4.87 0.413,-0.276 8.537,-4.31 8.614,-3.76 0.301,2.172 -2.254,3.377 0.265,5.005 2.479,1.603 4.515,2.158 3.616,-1.826 -1.995,-8.931 -13.645,-4.925 -19.942,-3.068"
       style="fill:#65beef"
       id="path53" />
    <path
       inkscape:connector-curvature="0"
       d="m 19.639,105.63 c 0.376,0 0.489,15.768 -1.623,15.768 0.134,0 0.608,-15.77 1.623,-15.77"
       style="fill:#ffffff"
       id="path55" />
    <path
       inkscape:connector-curvature="0"
       d="m 47.381,131.14 c -22.771,0 -42.525,-17.668 -44.975,-40.326 0.297,24.297 20.678,44.424 44.975,44.424 24.3,0 44.678,-20.127 44.979,-44.424 -2.45,22.664 -22.206,40.324 -44.979,40.324"
       style="fill:#0a50ff"
       id="path57" />
    <path
       inkscape:connector-curvature="0"
       d="m 78.531,77.176 c 0,2.566 4.378,10.459 7.311,8.871 2.321,-1.256 7.649,-4.549 6.759,-7.547 -2.274,-7.627 -6.186,-14.936 -11.68,-20.734 -2.717,-2.864 -9.849,-9.77 -14.091,-9.915 -1.29,-0.044 -2.082,1.253 -2.723,2.148 -2.764,3.848 -1.118,2.725 0.837,5.226 1.302,1.665 0.739,4.48 -1.697,3.724 -1.038,-0.321 -2.123,-2.401 -3.004,-3.105 -9.045,-7.21 -1.063,5.125 -2.384,7.015 -0.86,1.23 -6.248,3.503 -3.912,5.318 1.468,1.138 3.452,1.387 5.211,1.703 -5.31,2.552 -8.87,5.222 -9.364,11.083 -0.677,8.049 2.537,9.438 10.014,9.115 11.857,-0.512 -1.495,26.408 11.911,25.145 3.238,-0.305 9.682,-10.695 8.43,-13.67 -1.298,-3.072 -2.106,-3.855 1.164,-5.92 1.234,-0.777 5.937,-3.162 4.443,-5.352 -1.155,-1.689 -3.748,-2.357 -5.179,-3.867 -1.95,-2.063 -2.468,-4.771 -3.01,-7.441 -1.583,-7.773 -7.285,-3.658 -11.231,-7.877 3.924,0.608 12.195,0.327 12.195,6.083"
       style="fill:#ffffff"
       id="path59" />
    <path
       inkscape:connector-curvature="0"
       d="m 85.861,101.83 c -1.827,0.582 -2.815,1.766 -4.081,3.205 -1.044,1.191 -0.4,7.215 1.555,6.557 2.354,-0.8 2.55,-7.9 2.526,-9.77"
       style="fill:#f4f2f2"
       id="path61" />
    <path
       inkscape:connector-curvature="0"
       d="m 85.54,101.88 c -0.077,1.254 -0.773,6.766 -2.435,7.316 -1.046,-0.76 -1.741,-1.787 -2.089,-3.082 -0.425,0.846 1.056,5.904 2.318,5.479 2.203,-0.74 2.568,-9.8 2.206,-9.72"
       style="fill:#e2e0e0"
       id="path63" />
    <path
       inkscape:connector-curvature="0"
       d="m 27.771,51.221 c 0.188,-0.69 0,-1.599 0,-2.32 -4.512,-1.274 -11.852,6.888 -14.508,9.793 -4.64,5.074 -8.213,11.123 -10.295,17.681 -3.88,12.219 5.409,6.361 10.761,13.365 1.767,2.314 -1.119,7.043 0.933,10.162 1.519,2.311 4.392,4.377 4.122,7.219 -0.385,4.047 -0.771,8.092 -1.153,12.139 -0.077,0.789 -0.292,1.725 -0.241,2.523 -0.652,0.621 -0.884,1.422 -0.696,2.406 1.579,1.428 3.258,2.748 5.023,3.939 1.323,-2.818 1.101,-5.734 3.019,-8.494 2.833,-4.08 7.106,-6.93 10.027,-10.945 2.34,-3.217 1.309,-7.029 3.235,-10.363 1.029,-1.783 -0.172,-1.832 -1.884,-3.15 C 30.043,90.498 24.742,88.541 17.388,86.59 14.559,85.838 11.549,85.557 10.698,82.276 9.957,79.409 8.54,79.749 5.662,78.911 c 1.042,-2.43 7.701,-6.492 7.993,-2.26 0.288,4.17 3.618,7.432 7.924,7.432 2.614,0 -3.609,-4.406 -4.573,-4.596 -2.324,-0.463 -2.9,-3.98 -2.51,-5.863 0.404,-1.939 4.571,-4.899 5.971,-6.443 2.494,-2.758 5.253,0.334 7.966,-1.972 -3.476,-0.341 -7.345,-4.17 -1.816,-3.417 1.332,0.181 0.593,2.682 2.864,2.618 5.761,-0.163 -3.773,-3.957 -2.656,-2.499 -0.721,-0.942 3.682,-1.742 1.745,-4.357 -1.388,-1.883 -5.965,-5.792 -0.799,-6.344"
       style="fill:#ffffff"
       id="path65" />
    <path
       inkscape:connector-curvature="0"
       d="m 34.167,45.651 c -3.12,0.946 0.131,9.224 3.3,8.521 1.61,-0.357 2.7,-3.908 4.147,-4.872 0.413,-0.275 8.537,-4.307 8.614,-3.758 0.301,2.173 -2.254,3.375 0.265,5.004 2.479,1.603 4.515,2.157 3.616,-1.824 -1.995,-8.931 -13.643,-4.925 -19.942,-3.071"
       style="fill:#ffffff"
       id="path67" />
    <path
       inkscape:connector-curvature="0"
       d="m 54.109,48.722 c -0.297,-1.354 -0.816,-2.616 -1.557,-3.786 0.621,1.697 1.705,5.969 -1.343,4.218 -2.394,-1.375 1.392,-5.416 -1.875,-4.708 -4.908,1.064 -7.902,2.942 -10.768,6.858 -2.383,3.254 -4.506,-4.257 -4.65,-5.535 -2.72,1.329 0.496,9.081 3.552,8.402 1.61,-0.357 2.7,-3.908 4.147,-4.872 0.413,-0.275 8.537,-4.307 8.614,-3.758 0.301,2.173 -2.254,3.375 0.265,5.004 2.478,1.603 4.514,2.158 3.615,-1.823"
       style="fill:#e2e0e0"
       id="path69" />
    <path
       inkscape:connector-curvature="0"
       d="m 33.607,107.27 c -0.259,-0.014 -0.485,-4.775 -1.004,-5.428 -1.937,-2.43 -5.472,-0.01 -7.329,1.211 -6.864,4.516 -9.444,-3.346 -11.637,-9.119 -0.644,6.65 5.539,9.061 4.932,15.441 -0.347,3.637 -0.694,7.277 -1.039,10.916 -0.1,1.053 -0.124,1.18 -0.573,2.023 -1.375,2.584 3.05,4.658 4.759,5.813 2.276,-4.848 2.466,-8.359 6.637,-12.584 3.946,-4 7.767,-7.105 8.338,-12.916 -1.48,-0.25 -1.407,4.74 -3.084,4.65 M 2.076,83.862 c 0.827,0.715 1.216,1.361 2.608,1.355 -0.982,-1.76 -2.637,-2.33 -2.9,-4.313 -0.074,1.003 0.023,1.99 0.292,2.958"
       style="fill:#f4f2f2"
       id="path71" />
    <path
       inkscape:connector-curvature="0"
       d="m 79.615,95.508 c -2.982,7.023 -2.824,-2.383 -7.497,0.076 -2.415,0.947 -3.846,9.836 -4.775,9.617 -1.051,-0.246 -0.788,-5.166 -2.076,-4.791 -2.389,0.693 0.841,13.922 3.648,14.574 2.699,0.625 5.521,0.131 6.874,-2.576 1.008,-2.014 4.553,-7.488 4.639,-9.592 0.078,-1.924 -3.171,-4.402 -0.856,-6.037 1.34,-0.945 7.977,-3.998 6.149,-6.533 -1.965,1.854 -4.819,2.696 -6.106,5.268 M 92.27,81.383 c -0.03,0.162 -0.009,0.051 0,0"
       style="fill:#f4f2f2"
       id="path73" />
    <path
       inkscape:connector-curvature="0"
       d="m 23.785,62.554 c 3.358,-3.023 2.097,0.798 3.791,1.019 0.303,0.04 6.113,1.847 2.645,-1.687 -0.004,2.913 -3.713,-0.555 -4.03,-1.145 -1.178,-2.186 -5.176,0.631 -2.406,1.813 M 16.39,81.535 c -0.776,-0.258 -1.4,-0.719 -1.871,-1.381 0.521,3.049 10.12,4.742 6.896,1.576 2.192,2.512 -4.587,-0.189 -5.025,-0.195 m -0.732,-9.551 c 3.088,-0.84 3.585,-4.854 6.403,-6.059 2.221,-0.949 4.079,1.23 6.37,-0.718 -4.545,-1.221 -7.294,-1.834 -10.309,2.264 -2.257,3.065 -6.816,4.481 -3.469,9.182 -0.304,-1.102 -0.731,-4.196 1.005,-4.669 m -4.611,3.079 c 0.765,-0.012 1.522,0.059 2.271,0.213 -2.178,-3.717 -9.454,-0.66 -7.658,3.635 0.798,-2.065 3.191,-3.745 5.387,-3.848 m 26.424,21.171 c 0.396,1.396 -1.373,2.518 -1.579,3.93 -0.522,3.596 -0.499,5.523 -3.092,8.424 -2.842,3.182 -6.391,5.826 -8.838,9.348 -1.918,2.76 -1.698,5.674 -3.023,8.494 -1.477,-1.01 -2.89,-2.104 -4.236,-3.281 -0.371,2.369 4.715,6.83 5.235,4.221 0.981,-4.93 2.829,-8.189 6.416,-11.824 2.986,-3.027 8.263,-6.893 8.263,-11.646 0,-3 3.07,-5.884 0.854,-7.656 m -19.32,7.696 c -1.613,-2.012 -3.24,-4.057 -4.6,-6.25 1.137,2.928 3.446,5.486 5.374,7.947 -0.257,-0.57 -0.516,-1.13 -0.774,-1.7 M 2.21,83.081 c -0.401,2.514 3.894,2.496 5.643,2.945 3.572,0.912 4.096,1.377 6.392,4.27 C 14.968,85.57 4.81,83.941 2.21,83.081 m 24.787,-23.17 c 0.671,-0.447 1.347,-0.466 2.023,-0.057 0.396,-0.878 0.213,-1.683 -0.55,-2.411 0.007,0.889 -3.046,1.957 -2.42,2.774 0.315,-0.102 0.631,-0.204 0.947,-0.306 m 0.774,-8.683 c 0.147,-0.723 0,-1.578 0,-2.32 -1.667,0.797 -4.636,1.708 -2.61,4.194 0.029,-1.723 1.822,-1.199 2.61,-1.874"
       style="fill:#e2e0e0"
       id="path75" />
    <path
       inkscape:connector-curvature="0"
       d="m 56.807,63.941 c 1.778,-1.219 4.122,-2.84 2.601,-5.235 -0.148,-0.233 -3.928,-4.733 -3.981,-3.736 -0.18,3.488 5.201,5.715 1.38,8.971 m 0.188,5.542 c 0.719,0.197 1.444,0.371 2.174,0.517 -0.925,-1.258 -5.638,-2.83 -3.796,-4.956 -3.022,2.112 -1.706,3.87 1.622,4.439 m 8.558,-12.712 c 0.001,0.391 0.001,0.784 0.003,1.174 2.646,0.153 1.364,-3.78 -0.076,-4.574 -2.42,-1.334 -0.911,-3.021 0.538,-4.859 -0.171,-0.05 -0.317,-0.136 -0.437,-0.254 -5.507,5.507 -0.662,3.99 -0.028,8.513 m 14.351,47.249 c 0.171,-0.426 0.342,-0.852 0.514,-1.277 -1.385,2.2 -1.557,2.62 -0.514,1.28 m -10.573,8.38 c -2.006,-0.602 -3.26,-9.668 -3.352,-11.479 -0.275,-5.471 1.35,-7.744 -2.127,-12.039 -2.292,-2.822 -8.567,1.414 -11.582,-2.316 -1.487,-1.844 -0.283,-9.162 -1.614,-9.875 -0.64,-0.344 -0.83,9.615 -0.403,10.744 1.873,4.951 9.855,1.699 13.628,4.592 2.35,1.799 0.993,6.336 0.703,8.701 -0.418,3.422 0.947,7.006 1.645,10.342 1.225,5.854 7.813,5.234 10.099,0.189 -1.776,2.1 -4.639,1.85 -6.997,1.14 m 22.704,-31.98 c -1.662,1.332 -3.235,2.889 -5.132,3.914 -2.166,1.172 -3.994,-2.344 -5.337,-3.934 -2.659,-3.154 -0.743,-7.975 -5.52,-9.275 -3.502,-0.953 -6.458,0.477 -9.711,-0.029 3.395,0.488 7.758,0.311 10.547,2.523 2.548,2.025 1.561,6.34 3.957,8.908 2.263,2.424 2.837,5.072 6.103,2.838 1.367,-0.935 5.41,-3.486 5.093,-4.945 M 79.968,96.516 c 1.752,-1.186 5.679,-2.768 5.976,-5.26 -1.378,1.328 -6.31,2.959 -5.976,5.26"
       style="fill:#e2e0e0"
       id="path77" />
  </g>
  <metadata
     id="metadata4395">
    <rdf:RDF>
      <cc:Work>
        <dc:format>image/svg+xml</dc:format>
        <dc:type
           rdf:resource="http://purl.org/dc/dcmitype/StillImage" />
        <cc:license
           rdf:resource="http://creativecommons.org/publicdomain/zero/1.0/" />
        <dc:publisher>
          <cc:Agent
             rdf:about="http://openclipart.org/">
            <dc:title>Openclipart</dc:title>
          </cc:Agent>
        </dc:publisher>
        <dc:title>Architetto -- Foglio e mondo</dc:title>
        <dc:date>2009-06-30T13:35:03</dc:date>
        <dc:description>Blank paper and Earth icon by Francesco Rollandin. From OCAL 0.18 release.</dc:description>
        <dc:source>https://openclipart.org/detail/26916/architetto----foglio-e-mondo-by-anonymous</dc:source>
        <dc:creator>
          <cc:Agent>
            <dc:title>Anonymous</dc:title>
          </cc:Agent>
        </dc:creator>
        <dc:subject>
          <rdf:Bag>
            <rdf:li>computer</rdf:li>
            <rdf:li>earth</rdf:li>
            <rdf:li>globe</rdf:li>
            <rdf:li>icon</rdf:li>
            <rdf:li>paper</rdf:li>
            <rdf:li>web</rdf:li>
            <rdf:li>world</rdf:li>
          </rdf:Bag>
        </dc:subject>
      </cc:Work>
      <cc:License
         rdf:about="http://creativecommons.org/publicdomain/zero/1.0/">
        <cc:permits
           rdf:resource="http://creativecommons.org/ns#Reproduction" />
        <cc:permits
           rdf:resource="http://creativecommons.org/ns#Distribution" />
        <cc:permits
           rdf:resource="http://creativecommons.org/ns#DerivativeWorks" />
      </cc:License>
    </rdf:RDF>
  </metadata>
</svg>
